<svg width="18" height="18" viewBox="0 0 18 18" fill="none" xmlns="http://www.w3.org/2000/svg">
<path d="M9.00002 0.666748C4.40835 0.666748 0.666687 4.40841 0.666687 9.00008C0.666687 13.5917 4.40835 17.3334 9.00002 17.3334C13.5917 17.3334 17.3334 13.5917 17.3334 9.00008C17.3334 4.40841 13.5917 0.666748 9.00002 0.666748ZM12.9834 7.08342L8.25835 11.8084C8.14169 11.9251 7.98335 11.9917 7.81669 11.9917C7.65002 11.9917 7.49169 11.9251 7.37502 11.8084L5.01669 9.45008C4.77502 9.20842 4.77502 8.80841 5.01669 8.56675C5.25835 8.32508 5.65835 8.32508 5.90002 8.56675L7.81669 10.4834L12.1 6.20008C12.3417 5.95842 12.7417 5.95842 12.9834 6.20008C13.225 6.44175 13.225 6.83342 12.9834 7.08342Z" fill="#3FCC3D"/>
</svg>
