<svg width="25" height="24" viewBox="0 0 25 24" fill="none" xmlns="http://www.w3.org/2000/svg">
<path d="M9.90027 3.6311C11.0236 2.76098 12.831 2.66342 14.08 3.37427L14.3221 3.52661L14.3231 3.52759L20.0829 7.55688C20.4875 7.84011 20.8927 8.32444 21.1981 8.90942C21.5034 9.49429 21.6688 10.1036 21.6688 10.5999V17.3801C21.6687 19.4329 20.0018 21.0996 17.9491 21.0999H7.16882C5.11855 21.0999 3.44932 19.4256 3.4491 17.3704V10.47C3.4491 10.012 3.59714 9.43353 3.87585 8.86743C4.11961 8.37236 4.43377 7.94637 4.75476 7.65552L4.89246 7.53931L9.89929 3.63013L9.90027 3.6311ZM12.5585 13.3499C11.6515 13.35 10.9091 14.0933 10.9091 15.0002V18.0002C10.9092 18.9071 11.6516 19.6495 12.5585 19.6497C13.4654 19.6497 14.2087 18.9072 14.2089 18.0002V15.0002C14.2089 14.1498 13.5556 13.4435 12.7264 13.3586L12.5585 13.3499Z" fill="#090909" stroke="#090909" stroke-width="1.8"/>
</svg>
