<svg width="40" height="41" viewBox="0 0 40 41" fill="none" xmlns="http://www.w3.org/2000/svg">
<g clip-path="url(#clip0_17_1110)">
<path d="M20.9681 34.2427C21.1464 34.2049 21.3116 34.1031 21.4266 33.9434C21.6709 33.6034 21.5934 33.1297 21.2532 32.8855C21.0553 32.743 20.8717 32.6028 20.7002 32.4646V34.2504C20.7896 34.2634 20.8803 34.2613 20.9681 34.2427Z" fill="black"/>
<path d="M16.9632 28.4812C17.0161 28.4778 17.0691 28.4759 17.1222 28.4759C17.6017 28.4759 18.0622 28.611 18.4584 28.8521C18.4615 28.6559 18.4863 28.4762 18.5236 28.3136C18.5584 28.1627 18.6039 28.0265 18.6525 27.9053C18.6601 27.8869 18.6678 27.8708 18.6755 27.8532C18.8412 27.7873 19.0015 27.6937 19.1525 27.5707C19.4145 27.3576 19.6483 27.0566 19.832 26.6562C20.1194 26.0302 19.9852 25.5082 19.922 24.8145C19.2697 25.618 18.6576 26.0084 18.5306 26.0844C18.3766 26.1747 18.2038 26.2215 18.0285 26.2215C17.6771 26.2215 17.3489 26.0331 17.1713 25.7302C16.8956 25.2586 17.0551 24.6503 17.5269 24.3742C17.5352 24.369 17.5509 24.3585 17.5732 24.343C17.6208 24.3098 17.6985 24.2527 17.798 24.1685C17.9818 24.0125 18.2605 23.7452 18.5424 23.3579C19.2875 22.327 19.6667 21.0402 19.6693 19.5338C19.669 18.7298 19.5577 17.86 19.3386 16.9488C19.2848 16.7255 19.3125 16.5016 19.4012 16.3073C19.2647 15.6709 19.1585 14.8821 19.1586 13.9655C19.1601 12.2563 19.5207 10.1032 20.7628 7.61774C21.0508 7.04153 20.8175 6.34112 20.2412 6.05308C19.6647 5.76503 18.9641 5.9985 18.6758 6.57448C17.2687 9.38369 16.8238 11.9235 16.8254 13.9655C16.8268 16.522 17.5079 18.2881 17.8073 18.9425C17.7571 19.8663 17.6097 21.2089 16.9058 22.9437C16.2452 22.9256 15.7007 23.4729 15.5694 24.4007C15.4673 25.123 15.6391 25.9134 15.9862 26.5513C16.0984 26.7976 16.26 27.0303 16.4669 27.2421C16.581 27.3588 16.7084 27.4695 16.8501 27.5721C16.9334 27.6329 17.0199 27.6869 17.1085 27.7346C17.0797 27.8329 17.0528 27.9348 17.0301 28.0427C17.0011 28.1811 16.9787 28.3281 16.9632 28.4812Z" fill="black"/>
<path d="M18.8987 32.8926C19.0253 33.0174 19.1585 33.1427 19.2998 33.2682V32.4031C19.1877 32.5828 19.0522 32.7461 18.8987 32.8926Z" fill="black"/>
<path d="M19.7205 5.69627C19.9389 5.69627 20.1491 5.74595 20.3457 5.84437C20.3876 5.86536 20.4278 5.88822 20.4667 5.91271V0.5H19.5333V5.70886C19.5948 5.70082 19.6572 5.69627 19.7205 5.69627Z" fill="black"/>
<path d="M20.136 24.5379C20.147 24.7509 20.169 24.9475 20.1904 25.1347C20.2512 25.6706 20.3089 26.177 20.0443 26.7536C19.9054 27.0565 19.7317 27.3145 19.5333 27.528V30.1634C19.7178 30.6655 19.7429 31.2105 19.5953 31.7354C19.5775 31.7986 19.5555 31.8598 19.5333 31.9209V37.8177H20.4668V24.0438C20.359 24.2197 20.2509 24.3813 20.1459 24.5248C20.1427 24.5293 20.1393 24.5334 20.136 24.5379Z" fill="black"/>
<path d="M19.5333 15.7418C19.5497 15.843 19.5669 15.9407 19.5849 16.0348C19.7123 15.9006 19.878 15.7998 20.071 15.7534C20.1472 15.7351 20.2255 15.7258 20.3037 15.7258C20.3592 15.7258 20.4136 15.7305 20.4668 15.7393V8.83118C20.0106 9.93683 19.6989 11.0413 19.5333 12.1364V15.7418Z" fill="black"/>
<path d="M30.5001 38.1553H9.5V40.4876H30.5001V38.1553Z" fill="black"/>
<path d="M21.6524 19.5275L21.799 19.4118L24.5381 17.2508L27.5497 21.1078C27.7797 21.4025 28.1232 21.5565 28.4702 21.5565C28.7212 21.5565 28.9741 21.4759 29.1874 21.3096C29.6952 20.9135 29.7857 20.1805 29.3895 19.6729L25.6558 14.8914C25.464 14.6456 25.1851 14.4883 24.8757 14.4512C24.5663 14.414 24.2581 14.5005 24.0133 14.6936L21.3391 16.8034C21.5463 17.7509 21.6519 18.6659 21.6524 19.5275Z" fill="black"/>
<path d="M18.2678 33.0748C19.3914 32.444 19.7907 31.0223 19.1597 29.8992C18.5287 28.7761 17.1063 28.3771 15.9827 29.0079C14.8591 29.6387 14.4598 31.0604 15.0908 32.1835C15.7218 33.3066 17.1442 33.7056 18.2678 33.0748Z" fill="black"/>
<path d="M20.1254 15.98C19.7184 16.0779 19.4677 16.4872 19.5657 16.8942C19.8054 17.8907 19.9024 18.7667 19.9027 19.534C19.8997 21.451 19.3064 22.6995 18.7313 23.4949C18.4427 23.8912 18.1563 24.1705 17.9489 24.3463C17.8451 24.4342 17.7613 24.4962 17.707 24.5339C17.6802 24.5528 17.6606 24.5656 17.6499 24.5723C17.648 24.5735 17.6465 24.5746 17.6451 24.5754V24.5753C17.2834 24.7868 17.1619 25.2509 17.3733 25.6124C17.5143 25.8535 17.7682 25.9881 18.0288 25.9881C18.1587 25.9881 18.2904 25.9547 18.4107 25.8845C18.4735 25.8468 19.2166 25.4034 19.9575 24.3868C20.6987 23.3735 21.4223 21.7742 21.4193 19.534C21.4193 18.6383 21.3055 17.642 21.0401 16.5395C20.9421 16.1325 20.5326 15.882 20.1254 15.98Z" fill="black"/>
</g>
<defs>
<clipPath id="clip0_17_1110">
<rect width="40" height="40" fill="white" transform="translate(0 0.5)"/>
</clipPath>
</defs>
</svg>
