<svg width="1392" height="400" viewBox="0 0 1392 400" fill="none" xmlns="http://www.w3.org/2000/svg">
<rect width="1392" height="400" rx="16" fill="url(#paint0_linear_827_11825)"/>
<path opacity="0.4" fill-rule="evenodd" clip-rule="evenodd" d="M316.659 1.13685C295.621 5.94076 275.93 16.7212 261.636 31.2624C250.591 42.5007 238.315 61.3559 235.243 71.7979C232.604 80.7727 232.666 80.7647 207.556 75.5009C180.005 69.7234 147.303 66.8587 126.161 68.3677C83.6711 71.4018 37.6272 83.2333 9.57995 98.3259C-4.86667 106.1 -4.75726 106.08 22.3228 96.0504C81.8834 73.9899 148.575 69.9743 206.979 84.9315L228.206 90.3665L228.514 101.029C228.776 110.014 229.681 112.443 234.263 116.459C241.496 122.797 250.972 122.752 257.759 116.343C266.684 107.914 263.677 97.7286 249.743 89.1879C245.712 86.7193 242.138 84.4975 241.8 84.2526C241.462 84.0077 244.434 77.2349 248.404 69.2018C268.185 29.1799 309.87 6.54998 351.049 13.4801C422.95 25.5785 434.386 97.1135 378.938 187.918C353.098 230.231 307.557 285.045 271.551 317.164L255.751 331.259L227.811 335.822C178.178 343.926 138.955 357.188 131.186 368.488C126.591 375.175 127.304 384.538 132.814 389.811C150.623 406.859 201.833 391.962 248.109 356.274C260.348 346.833 260.928 346.626 283.72 343.498C338.536 335.975 440.542 330.456 552.096 328.975C748.772 326.367 980.426 342.507 1153.88 370.902C1187.4 376.389 1243.75 387.486 1276.33 395.018C1319.08 404.898 1305.93 399.159 1255.47 385.917C1128.71 352.644 984.174 332.999 763.11 318.995C721.772 316.377 678.286 315.561 574.565 315.461C437.113 315.33 401.909 316.536 321.921 324.124C301.834 326.031 285.17 327.436 284.892 327.249C284.615 327.062 293.139 317.769 303.838 306.598C342.079 266.668 376.349 221.846 396.854 184.948C419.333 144.492 428.282 112.915 426.592 79.9982C425.754 63.6653 424.761 59.5821 418.497 46.6675C403.562 15.8771 374.614 -0.549384 336.276 0.0140246C327.636 0.141439 318.809 0.647104 316.659 1.13685ZM238.561 97.2429C237.928 98.2881 237.963 101.392 238.641 104.139C240.224 110.564 246.679 112.775 250.937 108.354C253.908 105.264 253.717 104.681 248.275 100.195C241.83 94.8818 240.28 94.41 238.561 97.2429ZM191.614 359.013C165.759 365.708 143.746 374.311 143.746 377.721C143.746 382.724 155.748 383.264 172.154 378.997C183.981 375.921 215.748 361.161 222.876 355.432C226.713 352.346 226.695 352.29 221.899 352.362C219.212 352.401 205.584 355.394 191.614 359.013Z" fill="white"/>
<defs>
<linearGradient id="paint0_linear_827_11825" x1="384" y1="-150" x2="384" y2="697" gradientUnits="userSpaceOnUse">
<stop stop-color="#D9D9D9"/>
<stop offset="1" stop-color="#FFD2E5"/>
</linearGradient>
</defs>
</svg>
