<svg width="40" height="40" viewBox="0 0 40 40" fill="none" xmlns="http://www.w3.org/2000/svg">
<path d="M21.2632 23.6992C21.5156 23.3652 21.4492 22.8898 21.1151 22.6375C20.9902 22.5432 20.8454 22.4935 20.7001 22.4855V24.3852C20.8909 24.1706 21.0792 23.9432 21.2632 23.6992Z" fill="black"/>
<path d="M19.5334 37.3176H20.4668V34.1719C20.1704 34.3424 19.8529 34.4556 19.5334 34.5032V37.3176Z" fill="black"/>
<path d="M19.5334 30.1578C19.8956 30.3854 20.2117 30.5552 20.4668 30.6876V0H19.5334V30.1578Z" fill="black"/>
<path d="M30.5001 37.6554H9.50012V39.9878H30.5001V37.6554Z" fill="black"/>
<path d="M12.1574 25.5753C13.4422 25.477 14.4041 24.3561 14.3058 23.0717C14.2075 21.7874 13.0862 20.8258 11.8013 20.9241C10.5164 21.0224 9.55456 22.1433 9.65289 23.4276C9.75121 24.712 10.8725 25.6736 12.1574 25.5753Z" fill="black"/>
<path d="M14.0816 25.9586C13.6611 25.9553 13.2203 26.0714 12.7902 26.3113C11.7581 26.8816 11.3114 28.1648 12.3637 29.3998C12.4626 29.5158 12.5654 29.6109 12.6729 29.6912C12.8705 28.6559 13.1302 27.973 13.2071 27.7837C13.3667 27.4062 13.7252 27.1683 14.1251 27.1683C14.2578 27.1683 14.3874 27.1947 14.5104 27.2465C14.7542 27.3492 14.9437 27.5409 15.0433 27.7862C15.143 28.0315 15.1415 28.301 15.0386 28.545C15.0326 28.559 15.0278 28.5718 15.0208 28.59C15.0061 28.6287 14.9831 28.6913 14.9547 28.775C14.9015 28.9315 14.8208 29.1883 14.7383 29.5263C14.6752 29.7846 14.6068 30.1092 14.5494 30.4862C15.2841 30.8389 16.1597 31.4855 17.2205 33.0089C17.2595 33.0648 17.2987 33.1219 17.3382 33.1802C18.4335 34.7993 20.0215 34.4157 20.912 33.5442L23.5285 31.6936L26.4917 36.4709C26.7124 36.827 27.0939 37.0228 27.4844 37.0228C27.6943 37.0228 27.9066 36.9663 28.0982 36.8477C28.6457 36.5081 28.8145 35.7894 28.4751 35.242L24.858 29.4111C24.6891 29.1388 24.4124 28.9464 24.0981 28.8826C23.7841 28.8192 23.4539 28.8886 23.1925 29.0739L20.5091 30.9719C19.9174 30.6678 19.0814 30.219 18.1208 29.4129C17.7516 29.1029 17.3646 28.742 16.9651 28.3134C17.1627 27.9175 17.107 27.4621 16.8131 27.0509C16.8853 27.0251 16.9579 26.9985 17.0316 26.9701C17.7421 26.696 18.5216 26.2861 19.2998 25.6902V23.6641C18.3441 24.6497 17.3518 25.219 16.484 25.5563C15.8142 25.816 15.2192 25.9334 14.7856 25.9857C14.5497 25.9549 14.3125 25.9443 14.0816 25.9586Z" fill="black"/>
<path d="M14.8204 28.4618C14.8235 28.4544 14.8235 28.4544 14.8235 28.4544C14.9864 28.0687 14.8053 27.6239 14.4196 27.4614C14.0336 27.2986 13.589 27.4792 13.4262 27.8651L13.426 27.8647C13.4018 27.9257 12.668 29.6711 12.666 32.2367C12.666 33.5188 12.8517 35.0065 13.4102 36.5767C13.5206 36.8872 13.8128 37.0811 14.1248 37.0811C14.209 37.0811 14.2947 37.0669 14.3787 37.0371C14.7734 36.8969 14.9795 36.4633 14.8394 36.069C14.3469 34.6844 14.1829 33.3734 14.1829 32.2367C14.1827 31.1008 14.3478 30.1402 14.5113 29.4708C14.593 29.1362 14.6742 28.8743 14.7333 28.7002C14.7629 28.613 14.787 28.5477 14.803 28.5061C14.811 28.4855 14.8169 28.4706 14.8204 28.4618Z" fill="black"/>
</svg>
