<svg width="251" height="291" viewBox="0 0 251 291" fill="none" xmlns="http://www.w3.org/2000/svg">
<path fill-rule="evenodd" clip-rule="evenodd" d="M235.184 0.82706C219.558 4.3219 204.934 12.1647 194.318 22.7434C186.115 30.9192 176.997 44.6365 174.716 52.233C172.756 58.7621 172.802 58.7563 154.152 54.9269C133.69 50.7238 109.403 48.6397 93.7003 49.7375C62.1428 51.9448 27.9458 60.5522 7.11506 71.5321C-3.61449 77.1879 -3.53324 77.1734 16.5792 69.8767C60.8151 53.8276 110.347 50.9063 153.724 61.7877L169.489 65.7416L169.718 73.4989C169.913 80.0353 170.585 81.8023 173.988 84.7236C179.36 89.3351 186.398 89.3018 191.439 84.6396C198.067 78.5073 195.834 71.0976 185.485 64.8842C182.491 63.0883 179.837 61.4719 179.586 61.2938C179.335 61.1156 181.542 56.1884 184.491 50.3443C199.182 21.2284 230.141 4.76511 260.725 9.80678C314.126 18.6083 322.62 70.6501 281.438 136.71C262.247 167.493 228.423 207.37 201.682 230.736L189.947 240.991L169.196 244.31C132.333 250.206 103.202 259.854 97.4325 268.075C94.0195 272.94 94.5492 279.751 98.6413 283.588C111.868 295.99 149.902 285.152 184.272 259.189C193.361 252.321 193.792 252.17 210.72 249.895C251.432 244.422 327.192 240.407 410.044 239.33C556.116 237.432 728.166 249.174 856.987 269.832C881.886 273.823 923.736 281.896 947.932 287.375C979.682 294.563 969.916 290.388 932.445 280.755C838.296 256.549 730.949 242.257 566.764 232.069C536.063 230.164 503.765 229.571 426.731 229.498C324.645 229.403 298.499 230.28 239.092 235.8C224.173 237.187 211.796 238.21 211.59 238.074C211.384 237.938 217.716 231.177 225.662 223.05C254.063 194.001 279.516 161.393 294.745 134.549C311.44 105.118 318.086 82.1455 316.831 58.1987C316.209 46.3165 315.471 43.346 310.819 33.9506C299.727 11.5506 278.227 -0.399677 249.753 0.0102029C243.336 0.102897 236.78 0.470768 235.184 0.82706ZM177.18 70.7442C176.71 71.5046 176.736 73.7626 177.24 75.7613C178.415 80.4351 183.209 82.0442 186.371 78.8274C188.579 76.5796 188.436 76.1552 184.395 72.8921C179.608 69.0265 178.457 68.6832 177.18 70.7442ZM142.313 261.182C123.11 266.053 106.76 272.311 106.76 274.792C106.76 278.432 115.674 278.824 127.86 275.72C136.643 273.483 160.237 262.745 165.531 258.577C168.38 256.332 168.367 256.291 164.805 256.343C162.81 256.372 152.688 258.549 142.313 261.182Z" fill="#F5207C" fill-opacity="0.1"/>
</svg>
