<svg width="17" height="16" viewBox="0 0 17 16" fill="none" xmlns="http://www.w3.org/2000/svg">
<path d="M5.00662 14.6663H11.9933C13.8333 14.6663 14.9133 13.5397 14.9999 12.1663V6.65967C15.0933 5.21967 13.9466 3.99967 12.4999 3.99967C12.0933 3.99967 11.7199 3.76634 11.5333 3.40634L11.0533 2.43967C10.7466 1.83301 9.94662 1.33301 9.26662 1.33301H7.73995C7.05328 1.33301 6.25328 1.83301 5.94662 2.43967L5.46662 3.40634C5.27995 3.76634 4.90662 3.99967 4.49995 3.99967C3.05328 3.99967 1.90662 5.21967 1.99995 6.65967V12.1663C2.07995 13.5397 3.16662 14.6663 5.00662 14.6663Z" stroke="white" stroke-width="1.5" stroke-linecap="round" stroke-linejoin="round"/>
<path d="M7.5 5.33301H9.5" stroke="white" stroke-width="1.5" stroke-linecap="round" stroke-linejoin="round"/>
<path d="M8.50004 12.0003C9.69337 12.0003 10.6667 11.027 10.6667 9.83366C10.6667 8.64033 9.69337 7.66699 8.50004 7.66699C7.30671 7.66699 6.33337 8.64033 6.33337 9.83366C6.33337 11.027 7.30671 12.0003 8.50004 12.0003Z" stroke="white" stroke-width="1.5" stroke-linecap="round" stroke-linejoin="round"/>
</svg>
