<svg width="25" height="25" viewBox="0 0 25 25" fill="none" xmlns="http://www.w3.org/2000/svg">
<path d="M7.52646 22.2461H18.0065C20.7665 22.2461 22.3865 20.5561 22.5165 18.4961V10.2361C22.6565 8.07609 20.9365 6.24609 18.7665 6.24609C18.1565 6.24609 17.5965 5.89609 17.3165 5.35609L16.5965 3.90609C16.1365 2.99609 14.9365 2.24609 13.9165 2.24609H11.6265C10.5965 2.24609 9.39646 2.99609 8.93646 3.90609L8.21646 5.35609C7.93646 5.89609 7.37646 6.24609 6.76646 6.24609C4.59646 6.24609 2.87646 8.07609 3.01646 10.2361V18.4961C3.13646 20.5561 4.76646 22.2461 7.52646 22.2461Z" stroke="#F5207C" stroke-width="1.5" stroke-linecap="round" stroke-linejoin="round"/>
<path d="M11.2665 8.24609H14.2665" stroke="#F5207C" stroke-width="1.5" stroke-linecap="round" stroke-linejoin="round"/>
<path d="M12.7665 18.2461C14.5565 18.2461 16.0165 16.7861 16.0165 14.9961C16.0165 13.2061 14.5565 11.7461 12.7665 11.7461C10.9765 11.7461 9.51648 13.2061 9.51648 14.9961C9.51648 16.7861 10.9765 18.2461 12.7665 18.2461Z" stroke="#F5207C" stroke-width="1.5" stroke-linecap="round" stroke-linejoin="round"/>
</svg>
