<svg width="14" height="14" viewBox="0 0 14 14" fill="none" xmlns="http://www.w3.org/2000/svg">
<mask id="path-1-inside-1_414_5882" fill="white">
<path d="M10.76 13.5H3.25995C2.8427 13.5 2.43097 13.4046 2.05619 13.2212C1.6814 13.0378 1.35344 12.7712 1.09734 12.4418C0.841239 12.1124 0.663753 11.7288 0.57842 11.3204C0.493087 10.912 0.502162 10.4894 0.604952 10.085L2.12495 3.88004C2.15233 3.7691 2.21688 3.67088 2.30785 3.60174C2.39882 3.5326 2.51073 3.49671 2.62495 3.50004H11C11.1102 3.49499 11.2191 3.52658 11.3095 3.5899C11.4 3.65321 11.4669 3.74468 11.5 3.85004L13.39 9.93004C13.5192 10.343 13.5489 10.7806 13.4768 11.2073C13.4047 11.6339 13.2327 12.0375 12.975 12.385C12.7214 12.734 12.3881 13.0173 12.0027 13.2113C11.6174 13.4053 11.1913 13.5043 10.76 13.5ZM2.99995 4.50004L1.55495 10.325C1.4906 10.582 1.48545 10.8503 1.53987 11.1096C1.5943 11.3689 1.70688 11.6124 1.86913 11.8218C2.03138 12.0313 2.23907 12.2011 2.47653 12.3186C2.71399 12.4361 2.97503 12.4981 3.23995 12.5H10.74C11.0121 12.5005 11.2804 12.4363 11.5229 12.3129C11.7654 12.1895 11.9752 12.0103 12.135 11.79C12.2993 11.5685 12.409 11.3113 12.4551 11.0393C12.5011 10.7673 12.4822 10.4883 12.4 10.225L10.64 4.50004H2.99995Z"/>
</mask>
<path d="M10.76 13.5H3.25995C2.8427 13.5 2.43097 13.4046 2.05619 13.2212C1.6814 13.0378 1.35344 12.7712 1.09734 12.4418C0.841239 12.1124 0.663753 11.7288 0.57842 11.3204C0.493087 10.912 0.502162 10.4894 0.604952 10.085L2.12495 3.88004C2.15233 3.7691 2.21688 3.67088 2.30785 3.60174C2.39882 3.5326 2.51073 3.49671 2.62495 3.50004H11C11.1102 3.49499 11.2191 3.52658 11.3095 3.5899C11.4 3.65321 11.4669 3.74468 11.5 3.85004L13.39 9.93004C13.5192 10.343 13.5489 10.7806 13.4768 11.2073C13.4047 11.6339 13.2327 12.0375 12.975 12.385C12.7214 12.734 12.3881 13.0173 12.0027 13.2113C11.6174 13.4053 11.1913 13.5043 10.76 13.5ZM2.99995 4.50004L1.55495 10.325C1.4906 10.582 1.48545 10.8503 1.53987 11.1096C1.5943 11.3689 1.70688 11.6124 1.86913 11.8218C2.03138 12.0313 2.23907 12.2011 2.47653 12.3186C2.71399 12.4361 2.97503 12.4981 3.23995 12.5H10.74C11.0121 12.5005 11.2804 12.4363 11.5229 12.3129C11.7654 12.1895 11.9752 12.0103 12.135 11.79C12.2993 11.5685 12.409 11.3113 12.4551 11.0393C12.5011 10.7673 12.4822 10.4883 12.4 10.225L10.64 4.50004H2.99995Z" fill="black"/>
<path d="M10.76 13.5L10.7747 12.0001L10.7673 12H10.76V13.5ZM3.25995 13.5L3.25965 15H3.25995V13.5ZM0.604952 10.085L2.05878 10.4546L2.06188 10.4419L0.604952 10.085ZM2.12495 3.88004L0.668634 3.52067L0.668028 3.52314L2.12495 3.88004ZM2.62495 3.50004L2.58127 4.9994L2.60311 5.00004H2.62495V3.50004ZM11 3.50004V5.00004H11.0343L11.0686 4.99847L11 3.50004ZM11.5 3.85004L12.9323 3.40477L12.9314 3.4016L11.5 3.85004ZM13.39 9.93004L11.9576 10.3753L11.9584 10.378L13.39 9.93004ZM12.975 12.385L11.7702 11.4914L11.7658 11.4974L11.7614 11.5034L12.975 12.385ZM2.99995 4.50004V3.00004H1.82659L1.54408 4.13888L2.99995 4.50004ZM1.55495 10.325L3.01004 10.6894L3.01083 10.6862L1.55495 10.325ZM3.23995 12.5L3.22915 14H3.23995V12.5ZM10.74 12.5L10.7424 11H10.74V12.5ZM12.135 11.79L10.9304 10.8961L10.9256 10.9026L10.9208 10.9092L12.135 11.79ZM12.4 10.225L10.9662 10.6658L10.9683 10.6726L12.4 10.225ZM10.64 4.50004L12.0737 4.05926L11.7481 3.00004H10.64V4.50004ZM10.76 13.5V12H3.25995V13.5V15H10.76V13.5ZM3.25995 13.5L3.26026 12C3.07143 12 2.8851 11.9568 2.71549 11.8738L2.05619 13.2212L1.39689 14.5685C1.97685 14.8523 2.61397 14.9999 3.25965 15L3.25995 13.5ZM2.05619 13.2212L2.71549 11.8738C2.54587 11.7908 2.39746 11.6702 2.28156 11.5211L1.09734 12.4418L-0.0868734 13.3625C0.309431 13.8722 0.81692 14.2847 1.39689 14.5685L2.05619 13.2212ZM1.09734 12.4418L2.28156 11.5211C2.16566 11.372 2.08533 11.1985 2.04672 11.0136L0.57842 11.3204L-0.889877 11.6272C-0.757829 12.2592 -0.483178 12.8527 -0.0868734 13.3625L1.09734 12.4418ZM0.57842 11.3204L2.04672 11.0136C2.0081 10.8288 2.01221 10.6376 2.05872 10.4546L0.604952 10.085L-0.848819 9.71551C-1.00788 10.3413 -1.02192 10.9951 -0.889877 11.6272L0.57842 11.3204ZM0.604952 10.085L2.06188 10.4419L3.58188 4.23693L2.12495 3.88004L0.668028 3.52314L-0.851972 9.72814L0.604952 10.085ZM2.12495 3.88004L3.58127 4.2394C3.52652 4.46127 3.39742 4.6577 3.21547 4.79599L2.30785 3.60174L1.40022 2.4075C1.03633 2.68406 0.778137 3.07692 0.668636 3.52067L2.12495 3.88004ZM2.30785 3.60174L3.21547 4.79599C3.03353 4.93427 2.8097 5.00605 2.58127 4.9994L2.62495 3.50004L2.66864 2.00067C2.21177 1.98736 1.76412 2.13094 1.40022 2.4075L2.30785 3.60174ZM2.62495 3.50004V5.00004H11V3.50004V2.00004H2.62495V3.50004ZM11 3.50004L11.0686 4.99847C10.848 5.00856 10.6302 4.94537 10.4494 4.81874L11.3095 3.5899L12.1697 2.36105C11.808 2.1078 11.3725 1.98141 10.9314 2.0016L11 3.50004ZM11.3095 3.5899L10.4494 4.81874C10.2685 4.69212 10.1346 4.50918 10.0686 4.29847L11.5 3.85004L12.9314 3.4016C12.7993 2.98018 12.5315 2.6143 12.1697 2.36105L11.3095 3.5899ZM11.5 3.85004L10.0676 4.2953L11.9576 10.3753L13.39 9.93004L14.8223 9.48477L12.9323 3.40477L11.5 3.85004ZM13.39 9.93004L11.9584 10.378C12.017 10.5653 12.0305 10.7638 11.9978 10.9573L13.4768 11.2073L14.9558 11.4573C15.0674 10.7975 15.0213 10.1207 14.8215 9.4821L13.39 9.93004ZM13.4768 11.2073L11.9978 10.9573C11.9651 11.1508 11.8871 11.3338 11.7702 11.4914L12.975 12.385L14.1797 13.2786C14.5784 12.7412 14.8443 12.1171 14.9558 11.4573L13.4768 11.2073ZM12.975 12.385L11.7614 11.5034C11.6484 11.6589 11.5 11.7851 11.3283 11.8715L12.0027 13.2113L12.6772 14.5511C13.2762 14.2496 13.7944 13.8092 14.1885 13.2667L12.975 12.385ZM12.0027 13.2113L11.3283 11.8715C11.1567 11.9579 10.9668 12.002 10.7747 12.0001L10.76 13.5L10.7452 15C11.4158 15.0065 12.0782 14.8527 12.6772 14.5511L12.0027 13.2113ZM2.99995 4.50004L1.54408 4.13888L0.0990794 9.96388L1.55495 10.325L3.01083 10.6862L4.45583 4.86119L2.99995 4.50004ZM1.55495 10.325L0.0998689 9.96071C-0.0196338 10.438 -0.0292103 10.9362 0.071862 11.4177L1.53987 11.1096L3.00788 10.8014C3.00011 10.7644 3.00084 10.7261 3.01004 10.6894L1.55495 10.325ZM1.53987 11.1096L0.071862 11.4177C0.172934 11.8992 0.382017 12.3515 0.683343 12.7405L1.86913 11.8218L3.05492 10.9032C3.03174 10.8733 3.01566 10.8385 3.00788 10.8014L1.53987 11.1096ZM1.86913 11.8218L0.683343 12.7405C0.98467 13.1294 1.37038 13.4449 1.81137 13.6631L2.47653 12.3186L3.14169 10.9742C3.10777 10.9574 3.0781 10.9331 3.05492 10.9032L1.86913 11.8218ZM2.47653 12.3186L1.81137 13.6631C2.25237 13.8813 2.73715 13.9965 3.22915 14L3.23995 12.5L3.25075 11.0001C3.2129 10.9998 3.17561 10.9909 3.14169 10.9742L2.47653 12.3186ZM3.23995 12.5V14H10.74V12.5V11H3.23995V12.5ZM10.74 12.5L10.7375 14C11.2469 14.0009 11.7493 13.8808 12.2033 13.6497L11.5229 12.3129L10.8425 10.9761C10.8115 10.9919 10.7772 11.0001 10.7424 11L10.74 12.5ZM11.5229 12.3129L12.2033 13.6497C12.6573 13.4187 13.05 13.0832 13.3491 12.6708L12.135 11.79L10.9208 10.9092C10.9004 10.9374 10.8735 10.9603 10.8425 10.9761L11.5229 12.3129ZM12.135 11.79L13.3395 12.6839C13.6448 12.2726 13.8485 11.7948 13.934 11.2897L12.4551 11.0393L10.9761 10.7889C10.9696 10.8277 10.9539 10.8645 10.9304 10.8961L12.135 11.79ZM12.4551 11.0393L13.934 11.2897C14.0196 10.7846 13.9845 10.2665 13.8316 9.77752L12.4 10.225L10.9683 10.6726C10.98 10.7102 10.9827 10.75 10.9761 10.7889L12.4551 11.0393ZM12.4 10.225L13.8337 9.78426L12.0737 4.05926L10.64 4.50004L9.20617 4.94081L10.9662 10.6658L12.4 10.225ZM10.64 4.50004V3.00004H2.99995V4.50004V6.00004H10.64V4.50004Z" fill="#F5207C" mask="url(#path-1-inside-1_414_5882)"/>
<mask id="path-3-inside-2_414_5882" fill="white">
<path d="M9 7.5C8.86739 7.5 8.74021 7.44732 8.64645 7.35355C8.55268 7.25979 8.5 7.13261 8.5 7V3C8.5 2.60218 8.34196 2.22064 8.06066 1.93934C7.77936 1.65804 7.39782 1.5 7 1.5C6.60217 1.5 6.22064 1.65804 5.93934 1.93934C5.65803 2.22064 5.5 2.60218 5.5 3V7C5.5 7.13261 5.44732 7.25979 5.35355 7.35355C5.25978 7.44732 5.13261 7.5 5 7.5C4.86739 7.5 4.74021 7.44732 4.64645 7.35355C4.55268 7.25979 4.5 7.13261 4.5 7V3C4.5 2.33696 4.76339 1.70107 5.23223 1.23223C5.70107 0.763392 6.33696 0.5 7 0.5C7.66304 0.5 8.29893 0.763392 8.76777 1.23223C9.23661 1.70107 9.5 2.33696 9.5 3V7C9.5 7.13261 9.44732 7.25979 9.35355 7.35355C9.25979 7.44732 9.13261 7.5 9 7.5Z"/>
</mask>
<path d="M9 7.5C8.86739 7.5 8.74021 7.44732 8.64645 7.35355C8.55268 7.25979 8.5 7.13261 8.5 7V3C8.5 2.60218 8.34196 2.22064 8.06066 1.93934C7.77936 1.65804 7.39782 1.5 7 1.5C6.60217 1.5 6.22064 1.65804 5.93934 1.93934C5.65803 2.22064 5.5 2.60218 5.5 3V7C5.5 7.13261 5.44732 7.25979 5.35355 7.35355C5.25978 7.44732 5.13261 7.5 5 7.5C4.86739 7.5 4.74021 7.44732 4.64645 7.35355C4.55268 7.25979 4.5 7.13261 4.5 7V3C4.5 2.33696 4.76339 1.70107 5.23223 1.23223C5.70107 0.763392 6.33696 0.5 7 0.5C7.66304 0.5 8.29893 0.763392 8.76777 1.23223C9.23661 1.70107 9.5 2.33696 9.5 3V7C9.5 7.13261 9.44732 7.25979 9.35355 7.35355C9.25979 7.44732 9.13261 7.5 9 7.5Z" fill="black"/>
<path d="M8.5 3H10H8.5ZM4.5 3H3H4.5ZM7 0.5V-1V0.5ZM9 7.5V6C9.26521 6 9.51957 6.10535 9.70711 6.29289L8.64645 7.35355L7.58579 8.41421C7.96086 8.78929 8.46957 9 9 9V7.5ZM8.64645 7.35355L9.70711 6.29289C9.89465 6.48043 10 6.73479 10 7H8.5H7C7 7.53043 7.21071 8.03914 7.58579 8.41421L8.64645 7.35355ZM8.5 7H10V3H8.5H7V7H8.5ZM8.5 3H10C10 2.20435 9.68393 1.44129 9.12132 0.87868L8.06066 1.93934L7 3H7H8.5ZM8.06066 1.93934L9.12132 0.87868C8.55871 0.316071 7.79565 0 7 0V1.5V3L8.06066 1.93934ZM7 1.5V0C6.20435 0 5.44129 0.316071 4.87868 0.87868L5.93934 1.93934L7 3V1.5ZM5.93934 1.93934L4.87868 0.87868C4.31607 1.44129 4 2.20435 4 3H5.5H7H7L5.93934 1.93934ZM5.5 3H4V7H5.5H7V3H5.5ZM5.5 7H4C4 6.73478 4.10536 6.48043 4.29289 6.29289L5.35355 7.35355L6.41421 8.41421C6.78929 8.03914 7 7.53043 7 7H5.5ZM5.35355 7.35355L4.29289 6.29289C4.48043 6.10536 4.73479 6 5 6V7.5V9C5.53043 9 6.03914 8.78929 6.41421 8.41421L5.35355 7.35355ZM5 7.5V6C5.26521 6 5.51957 6.10536 5.70711 6.29289L4.64645 7.35355L3.58579 8.41421C3.96086 8.78929 4.46957 9 5 9V7.5ZM4.64645 7.35355L5.70711 6.29289C5.89464 6.48043 6 6.73478 6 7H4.5H3C3 7.53043 3.21071 8.03914 3.58579 8.41421L4.64645 7.35355ZM4.5 7H6V3H4.5H3V7H4.5ZM4.5 3H6C6 2.73478 6.10536 2.48043 6.29289 2.29289L5.23223 1.23223L4.17157 0.171573C3.42143 0.921718 3 1.93913 3 3H4.5ZM5.23223 1.23223L6.29289 2.29289C6.48043 2.10536 6.73478 2 7 2V0.5V-1C5.93913 -1 4.92172 -0.578573 4.17157 0.171573L5.23223 1.23223ZM7 0.5V2C7.26522 2 7.51957 2.10536 7.70711 2.29289L8.76777 1.23223L9.82843 0.171573C9.07828 -0.578573 8.06087 -1 7 -1V0.5ZM8.76777 1.23223L7.70711 2.29289C7.89464 2.48043 8 2.73478 8 3H9.5H11C11 1.93913 10.5786 0.921718 9.82843 0.171573L8.76777 1.23223ZM9.5 3H8V7H9.5H11V3H9.5ZM9.5 7H8C8 6.73479 8.10535 6.48043 8.29289 6.29289L9.35355 7.35355L10.4142 8.41421C10.7893 8.03914 11 7.53043 11 7H9.5ZM9.35355 7.35355L8.29289 6.29289C8.48043 6.10535 8.73479 6 9 6V7.5V9C9.53043 9 10.0391 8.78929 10.4142 8.41421L9.35355 7.35355Z" fill="#F5207C" mask="url(#path-3-inside-2_414_5882)"/>
</svg>
