<svg width="25" height="24" viewBox="0 0 25 24" fill="none" xmlns="http://www.w3.org/2000/svg">
<path d="M18.5587 7.16C18.4987 7.15 18.4287 7.15 18.3687 7.16C16.9887 7.11 15.8887 5.98 15.8887 4.58C15.8887 3.15 17.0387 2 18.4687 2C19.8987 2 21.0487 3.16 21.0487 4.58C21.0387 5.98 19.9387 7.11 18.5587 7.16Z" stroke="black" stroke-width="1.8" stroke-linecap="round" stroke-linejoin="round"/>
<path d="M17.5289 14.4399C18.8989 14.6699 20.4089 14.4299 21.4689 13.7199C22.8789 12.7799 22.8789 11.2399 21.4689 10.2999C20.3989 9.58992 18.8689 9.34991 17.4989 9.58991" stroke="black" stroke-width="1.8" stroke-linecap="round" stroke-linejoin="round"/>
<path d="M6.5287 7.16C6.5887 7.15 6.6587 7.15 6.7187 7.16C8.0987 7.11 9.1987 5.98 9.1987 4.58C9.1987 3.15 8.0487 2 6.6187 2C5.1887 2 4.0387 3.16 4.0387 4.58C4.0487 5.98 5.1487 7.11 6.5287 7.16Z" stroke="black" stroke-width="1.8" stroke-linecap="round" stroke-linejoin="round"/>
<path d="M7.55908 14.4399C6.18908 14.6699 4.67908 14.4299 3.61908 13.7199C2.20908 12.7799 2.20908 11.2399 3.61908 10.2999C4.68908 9.58992 6.21908 9.34991 7.58908 9.58991" stroke="black" stroke-width="1.8" stroke-linecap="round" stroke-linejoin="round"/>
<path d="M12.5587 14.63C12.4987 14.62 12.4287 14.62 12.3687 14.63C10.9887 14.58 9.88873 13.45 9.88873 12.05C9.88873 10.62 11.0387 9.46997 12.4687 9.46997C13.8987 9.46997 15.0487 10.63 15.0487 12.05C15.0387 13.45 13.9387 14.59 12.5587 14.63Z" stroke="black" stroke-width="1.8" stroke-linecap="round" stroke-linejoin="round"/>
<path d="M9.64893 17.7799C8.23893 18.7199 8.23893 20.2599 9.64893 21.1999C11.2489 22.2699 13.8689 22.2699 15.4689 21.1999C16.8789 20.2599 16.8789 18.7199 15.4689 17.7799C13.8789 16.7199 11.2489 16.7199 9.64893 17.7799Z" stroke="black" stroke-width="1.8" stroke-linecap="round" stroke-linejoin="round"/>
</svg>
