<svg width="25" height="24" viewBox="0 0 25 24" fill="none" xmlns="http://www.w3.org/2000/svg">
<path d="M17.9885 2.75C19.0924 2.75 20.0074 3.5902 20.1174 4.6709L20.1292 4.88965C20.1195 6.03721 19.2245 6.96337 18.0989 7.01758C18.0218 7.01159 17.9445 7.01152 17.8674 7.01758C16.7403 6.96257 15.8489 6.03423 15.8489 4.88965C15.8491 3.71245 16.8047 2.75019 17.9885 2.75Z" fill="black" stroke="black" stroke-width="1.5"/>
<path d="M18.239 10.7588C19.1611 10.7803 20.0472 11.0067 20.741 11.4111L20.9246 11.5254L20.9265 11.5273C21.5596 11.9441 21.7744 12.4192 21.7751 12.7979C21.7757 13.13 21.6124 13.5379 21.1492 13.917L20.9324 14.0771H20.9314C20.2207 14.553 19.2579 14.8182 18.2634 14.8447C18.41 14.3327 18.5018 13.8004 18.5349 13.2539L18.5486 12.8584V12.8506C18.5486 12.1275 18.4431 11.4229 18.239 10.7588Z" fill="black" stroke="black" stroke-width="1.5"/>
<path d="M7.09863 2.75C8.2843 2.75 9.23809 3.70403 9.23828 4.88965C9.23828 6.03472 8.34659 6.96329 7.21875 7.01758C7.14163 7.01159 7.06442 7.01152 6.9873 7.01758C5.86015 6.96257 4.96875 6.03423 4.96875 4.88965C4.96894 3.70237 5.92471 2.75006 7.09863 2.75Z" fill="black" stroke="black" stroke-width="1.5"/>
<path d="M6.65942 10.7656C6.46229 11.4262 6.35864 12.1263 6.35864 12.8506C6.35864 13.5422 6.45541 14.2119 6.63599 14.8477C5.70998 14.794 4.82838 14.5287 4.15356 14.0859H4.15454C3.51937 13.6638 3.30398 13.1855 3.30396 12.8057C3.30396 12.4733 3.46818 12.0651 3.93481 11.6855L4.15454 11.5254L4.15747 11.5225C4.81875 11.0775 5.71657 10.8136 6.65942 10.7656Z" fill="black" stroke="black" stroke-width="1.5"/>
<path d="M12.5591 9.75C13.9519 9.7501 15.0972 10.8085 15.2349 12.165L15.2485 12.4404C15.2384 13.8959 14.1013 15.0673 12.6646 15.1191C12.5867 15.1144 12.5089 15.1144 12.4321 15.1191C11.0035 15.0666 9.86116 13.8941 9.85889 12.4443C9.86673 10.9533 11.0655 9.75 12.5591 9.75Z" fill="black" stroke="black" stroke-width="1.5"/>
<path d="M9.42889 17.9406C7.91889 18.9506 7.91889 20.6106 9.42889 21.6106C11.1489 22.7606 13.9689 22.7606 15.6889 21.6106C17.1989 20.6006 17.1989 18.9406 15.6889 17.9406C13.9789 16.7906 11.1589 16.7906 9.42889 17.9406Z" fill="black"/>
</svg>
