<svg width="25" height="24" viewBox="0 0 25 24" fill="none" xmlns="http://www.w3.org/2000/svg">
<path d="M15.2889 2H9.82886V6.36H15.2889V2Z" fill="black"/>
<path d="M16.7888 2V6.36H22.4288C21.9188 3.61 19.8888 2.01 16.7888 2Z" fill="black"/>
<path d="M2.55884 7.85986V16.1899C2.55884 19.8299 4.72884 21.9999 8.36884 21.9999H16.7488C20.3888 21.9999 22.5588 19.8299 22.5588 16.1899V7.85986H2.55884ZM14.9988 16.1799L12.9188 17.3799C12.4788 17.6299 12.0488 17.7599 11.6488 17.7599C11.3488 17.7599 11.0788 17.6899 10.8288 17.5499C10.2488 17.2199 9.92884 16.5399 9.92884 15.6599V13.2599C9.92884 12.3799 10.2488 11.6999 10.8288 11.3699C11.4088 11.0299 12.1488 11.0899 12.9188 11.5399L14.9988 12.7399C15.7688 13.1799 16.1888 13.7999 16.1888 14.4699C16.1888 15.1399 15.7588 15.7299 14.9988 16.1799Z" fill="black"/>
<path d="M8.32872 2C5.22872 2.01 3.19872 3.61 2.68872 6.36H8.32872V2Z" fill="black"/>
</svg>
