<svg width="25" height="24" viewBox="0 0 25 24" fill="none" xmlns="http://www.w3.org/2000/svg">
<path d="M15.5587 22.75H9.55866C4.12866 22.75 1.80865 20.43 1.80865 15V9C1.80865 3.57 4.12866 1.25 9.55866 1.25H15.5587C20.9887 1.25 23.3087 3.57 23.3087 9V15C23.3087 20.43 20.9887 22.75 15.5587 22.75ZM9.55866 2.75C4.94866 2.75 3.30866 4.39 3.30866 9V15C3.30866 19.61 4.94866 21.25 9.55866 21.25H15.5587C20.1687 21.25 21.8087 19.61 21.8087 15V9C21.8087 4.39 20.1687 2.75 15.5587 2.75H9.55866Z" fill="black"/>
<path d="M22.039 7.86011H3.07898C2.66898 7.86011 2.32898 7.52011 2.32898 7.11011C2.32898 6.70011 2.65898 6.36011 3.07898 6.36011H22.039C22.449 6.36011 22.789 6.70011 22.789 7.11011C22.789 7.52011 22.459 7.86011 22.039 7.86011Z" fill="black"/>
<path d="M9.07898 7.71986C8.66898 7.71986 8.32898 7.37986 8.32898 6.96986V2.10986C8.32898 1.69986 8.66898 1.35986 9.07898 1.35986C9.48898 1.35986 9.82898 1.69986 9.82898 2.10986V6.96986C9.82898 7.37986 9.48898 7.71986 9.07898 7.71986Z" fill="black"/>
<path d="M16.0387 7.26986C15.6287 7.26986 15.2887 6.92986 15.2887 6.51986V2.10986C15.2887 1.69986 15.6287 1.35986 16.0387 1.35986C16.4487 1.35986 16.7887 1.69986 16.7887 2.10986V6.51986C16.7887 6.93986 16.4587 7.26986 16.0387 7.26986Z" fill="black"/>
<path d="M11.6488 18.12C11.2888 18.12 10.9488 18.03 10.6388 17.86C9.95884 17.46 9.55884 16.66 9.55884 15.65V13.25C9.55884 12.24 9.95884 11.43 10.6488 11.03C11.3388 10.63 12.2388 10.69 13.1088 11.2L15.1888 12.4C16.0588 12.9 16.5688 13.65 16.5688 14.45C16.5688 15.25 16.0588 16 15.1788 16.5L13.0988 17.7C12.6188 17.98 12.1188 18.12 11.6488 18.12ZM11.6588 12.27C11.5588 12.27 11.4688 12.29 11.3988 12.33C11.1888 12.45 11.0588 12.79 11.0588 13.25V15.65C11.0588 16.1 11.1888 16.44 11.3988 16.57C11.6088 16.69 11.9688 16.63 12.3588 16.4L14.4388 15.2C14.8288 14.97 15.0688 14.69 15.0688 14.45C15.0688 14.21 14.8388 13.93 14.4388 13.7L12.3588 12.5C12.0988 12.35 11.8488 12.27 11.6588 12.27Z" fill="black"/>
</svg>
