<svg width="20" height="20" viewBox="0 0 20 20" fill="none" xmlns="http://www.w3.org/2000/svg">
<g clip-path="url(#clip0_378_2015)">
<path d="M11.7671 11.7666C11.5382 12.0122 11.2622 12.2092 10.9555 12.3459C10.6489 12.4825 10.3178 12.556 9.98215 12.5619C9.64647 12.5678 9.31304 12.5061 9.00175 12.3803C8.69045 12.2546 8.40767 12.0675 8.17028 11.8301C7.93288 11.5927 7.74573 11.3099 7.62 10.9986C7.49426 10.6873 7.43251 10.3539 7.43843 10.0182C7.44436 9.68252 7.51783 9.35148 7.65447 9.04481C7.79111 8.73815 7.98812 8.46215 8.23374 8.23327M14.9504 14.9499C13.5259 16.0358 11.7913 16.6373 10.0004 16.6666C4.16707 16.6666 0.83374 9.99994 0.83374 9.99994C1.87032 8.06819 3.30802 6.38045 5.05041 5.04994L14.9504 14.9499ZM8.25041 3.53327C8.82402 3.39901 9.41129 3.33189 10.0004 3.33327C15.8337 3.33327 19.1671 9.99994 19.1671 9.99994C18.6612 10.9463 18.058 11.8372 17.3671 12.6583L8.25041 3.53327Z" stroke="#7F7F7F" stroke-width="1.875" stroke-linecap="round" stroke-linejoin="round"/>
<path d="M0.83374 0.833252L19.1671 19.1666" stroke="#7F7F7F" stroke-width="1.875" stroke-linecap="round" stroke-linejoin="round"/>
</g>
<defs>
<clipPath id="clip0_378_2015">
<rect width="20" height="20" fill="white"/>
</clipPath>
</defs>
</svg>
