<svg width="241" height="71" viewBox="0 0 241 71" fill="none" xmlns="http://www.w3.org/2000/svg">
<path fill-rule="evenodd" clip-rule="evenodd" d="M0.0896432 37.5726L0.178945 51.4214L1.63308 51.5284L3.08721 51.6357V45.6927V39.7501H10.1012H17.1153V38.3565V36.9629H10.1012H3.08721V31.5627V26.1626H10.9566H18.826V24.9432V23.7238H9.41319H0L0.0896432 37.5726ZM24.9847 37.6597V51.5956H26.3533H27.7219V37.6597V23.7238H26.3533H24.9847V37.6597ZM32.512 24.9432V26.1626H37.3021H42.0921V38.899V51.6357L43.5463 51.5284L45.0004 51.4214L45.0548 38.8791L45.1092 26.3368L49.9198 26.2403L54.7301 26.1434L54.6853 24.9338L54.6408 23.7238H43.5764H32.512V24.9432ZM81.1788 37.5726L81.2681 51.4214H82.6367H84.0053L84.0991 45.5858L84.1928 39.7501H91.2195H98.2459L98.1395 38.4436L98.0334 37.1371L91.1049 37.0427L84.1764 36.9486V31.5554V26.1626H92.0458H99.9152V24.9432V23.7238H90.5024H81.0892L81.1788 37.5726ZM106.074 37.6597V51.5956H114.799H123.523V50.3832V49.1708L116.253 49.0767L108.982 48.9826L108.893 36.3532L108.803 23.7238H107.438H106.074V37.6597ZM137.386 29.7173C135.903 33.0316 133.313 38.8007 131.629 42.5373C129.946 46.2738 128.355 49.8404 128.094 50.4633L127.62 51.5956H129.107H130.593L132.171 48.0245L133.748 44.4535L141.47 44.3597L149.192 44.266L150.877 47.9308L152.562 51.5956H153.952C154.717 51.5956 155.343 51.4852 155.343 51.3504C155.343 51.2152 154.952 50.2355 154.474 49.1729C153.996 48.1099 151.245 41.9886 148.36 35.5693L143.115 23.898L141.598 23.7945L140.081 23.6914L137.386 29.7173ZM159.113 32.1724C159.121 43.671 159.761 46.54 162.935 49.3063C164.742 50.8818 167.416 51.7263 170.569 51.7179C175.442 51.7047 178.421 50.0285 180.317 46.232L181.518 43.8295L181.622 33.7768L181.727 23.7238H180.339H178.952V32.7187C178.952 43.286 178.717 44.6099 176.432 46.9365C174.865 48.5322 173.226 49.152 170.566 49.1547C167.094 49.1589 164.802 47.8946 163.306 45.1503L162.357 43.4083L162.252 33.566L162.147 23.7238H160.627H159.107L159.113 32.1724ZM190.585 37.6388V51.5956H191.953H193.322V40.4469C193.322 34.3151 193.437 29.3093 193.578 29.3229C193.72 29.3361 196.914 33.3434 200.678 38.2276C211.374 52.1078 210.979 51.6542 212.249 51.5287L213.337 51.4214L213.427 37.5726L213.516 23.7238H211.973H210.429V34.6983C210.429 40.7343 210.314 45.6624 210.173 45.6495C210.031 45.6366 206.136 40.7375 201.517 34.7621C193.421 24.2899 193.072 23.8942 191.851 23.79L190.585 23.6816V37.6388ZM217.956 24.9432V26.1626H222.742H227.528L227.618 38.792L227.708 51.4214H229.076H230.445L230.535 38.792L230.624 26.1626H235.41H240.196V24.9432V23.7238H229.076H217.956V24.9432ZM140.696 28.6885C140.322 29.5027 139.439 31.5018 138.733 33.1305C138.028 34.7593 137.033 37.0326 136.521 38.1823C136.011 39.332 135.483 40.6291 135.349 41.0643L135.106 41.8562L141.546 41.7611C145.616 41.7011 147.959 41.5381 147.91 41.3179C147.717 40.4392 141.802 27.212 141.602 27.2102C141.478 27.2088 141.07 27.8743 140.696 28.6885Z" fill="black"/>
<path fill-rule="evenodd" clip-rule="evenodd" d="M58.0026 0.231786C54.3183 1.07247 50.8701 2.95905 48.367 5.50375C46.4328 7.47045 44.2831 10.7701 43.7452 12.5975C43.283 14.1681 43.2939 14.1667 38.8967 13.2455C34.072 12.2344 28.3455 11.7331 24.6431 11.9972C17.2024 12.5281 9.13932 14.5987 4.22778 17.2399C1.69793 18.6004 1.71709 18.5969 6.45927 16.8417C16.8893 12.9811 28.5682 12.2783 38.7957 14.8958L42.5128 15.847L42.5669 17.713C42.6127 19.2853 42.7711 19.7104 43.5735 20.4131C44.8401 21.5224 46.4995 21.5144 47.6882 20.3929C49.2511 18.9178 48.7245 17.1353 46.2843 15.6407C45.5785 15.2087 44.9527 14.8199 44.8935 14.777C44.8343 14.7342 45.3547 13.5489 46.0499 12.1432C49.5139 5.13932 56.8136 1.17908 64.0247 2.39186C76.6158 4.50907 78.6184 17.0277 68.9086 32.9185C64.3836 40.3233 56.4085 49.9158 50.1034 55.5365L47.3364 58.0031L42.4437 58.8016C33.7521 60.22 26.8835 62.5406 25.5231 64.5182C24.7184 65.6884 24.8433 67.3269 25.8081 68.2498C28.9268 71.2332 37.8945 68.6261 45.9983 62.3807C48.1415 60.7286 48.2431 60.6924 52.2343 60.1451C61.8336 58.8285 79.6965 57.8627 99.2315 57.6035C133.673 57.1471 174.239 59.9716 204.613 64.9408C210.484 65.9009 220.351 67.8429 226.056 69.1609C233.543 70.89 231.24 69.8856 222.405 67.5684C200.206 61.7456 174.896 58.3076 136.183 55.857C128.945 55.3988 121.329 55.256 103.166 55.2386C79.096 55.2156 72.9312 55.4267 58.924 56.7544C55.4063 57.0882 52.4882 57.3342 52.4396 57.3014C52.391 57.2687 53.8838 55.6424 55.7574 53.6875C62.4539 46.6997 68.4552 38.8559 72.0461 32.3987C75.9825 25.3189 77.5495 19.7929 77.2536 14.0325C77.1068 11.1743 76.933 10.4597 75.836 8.19964C73.2206 2.81132 68.1514 -0.0633053 61.4377 0.0352912C59.9248 0.0575887 58.3789 0.14608 58.0026 0.231786ZM44.3262 17.0503C44.2154 17.2333 44.2215 17.7764 44.3402 18.2572C44.6174 19.3815 45.7478 19.7685 46.4934 18.9948C47.0138 18.454 46.9803 18.352 46.0274 17.567C44.8986 16.6371 44.6273 16.5546 44.3262 17.0503ZM36.1051 62.8601C31.5774 64.0318 27.7224 65.5372 27.7224 66.134C27.7224 67.0095 29.8242 67.104 32.6973 66.3573C34.7683 65.8191 40.3313 63.2361 41.5794 62.2334C42.2514 61.6934 42.2483 61.6836 41.4084 61.6961C40.9379 61.7031 38.5514 62.2267 36.1051 62.8601Z" fill="#F5207C"/>
</svg>
