<svg width="145" height="42" viewBox="0 0 145 42" fill="none" xmlns="http://www.w3.org/2000/svg">
<path fill-rule="evenodd" clip-rule="evenodd" d="M0.0539538 22.5238L0.107535 30.8331L0.980013 30.8973L1.85249 30.9616V27.3959V23.8303H6.06092H10.2693V22.9941V22.158H6.06092H1.85249V18.9179V15.6778H6.57414H11.2958V14.9461V14.2145H5.64808H0.000167847L0.0539538 22.5238ZM14.991 22.5761V30.9376H15.8121H16.6333V22.5761V14.2145H15.8121H14.991V22.5761ZM19.5074 14.9461V15.6778H22.3814H25.2554V23.3196V30.9616L26.1279 30.8973L27.0004 30.8331L27.033 23.3077L27.0657 15.7823L29.952 15.7244L32.8382 15.6663L32.8113 14.9405L32.7846 14.2145H26.146H19.5074V14.9461ZM48.7075 22.5238L48.761 30.8331H49.5822H50.4034L50.4596 27.3317L50.5159 23.8303H54.7319H58.9477L58.8838 23.0464L58.8202 22.2625L54.6631 22.2058L50.506 22.1494V18.9135V15.6778H55.2276H59.9493V14.9461V14.2145H54.3016H48.6537L48.7075 22.5238ZM63.6445 22.5761V30.9376H68.8794H74.1142V30.2101V29.4827L69.7519 29.4263L65.3895 29.3698L65.3357 21.7922L65.2817 14.2145H64.4632H63.6445V22.5761ZM82.4317 17.8106C81.5422 19.7992 79.988 23.2607 78.9777 25.5026C77.9675 27.7445 77.0131 29.8845 76.8567 30.2582L76.5722 30.9376H77.4641H78.3561L79.3027 28.795L80.2491 26.6523L84.8823 26.5961L89.5152 26.5398L90.5261 28.7387L91.5371 30.9376H92.3716C92.8307 30.9376 93.2061 30.8713 93.2061 30.7904C93.2061 30.7093 92.9715 30.1215 92.6845 29.4839C92.3977 28.8462 90.747 25.1734 89.0162 21.3218L85.8693 14.319L84.9593 14.2569L84.049 14.1951L82.4317 17.8106ZM95.4678 19.2837C95.4727 26.1828 95.8566 27.9042 97.7613 29.564C98.8456 30.5093 100.45 31.016 102.341 31.011C105.265 31.003 107.052 29.9974 108.191 27.7195L108.911 26.2779L108.974 20.2463L109.037 14.2145H108.204H107.371V19.6115C107.371 25.9518 107.23 26.7462 105.859 28.1421C104.919 29.0995 103.936 29.4714 102.34 29.4731C100.256 29.4756 98.8815 28.717 97.984 27.0704L97.4146 26.0252L97.3515 20.1198L97.2885 14.2145H96.3764H95.4643L95.4678 19.2837ZM114.351 22.5635V30.9376H115.172H115.993V24.2484C115.993 20.5693 116.062 17.5658 116.147 17.574C116.232 17.5819 118.149 19.9863 120.407 22.9168C126.824 31.2449 126.588 30.9727 127.35 30.8975L128.003 30.8331L128.056 22.5238L128.11 14.2145H127.184H126.258V20.7992C126.258 24.4208 126.188 27.3777 126.104 27.3699C126.019 27.3622 123.682 24.4227 120.91 20.8375C116.053 14.5542 115.843 14.3167 115.111 14.2542L114.351 14.1892V22.5635ZM130.774 14.9461V15.6778H133.646H136.517L136.571 23.2554L136.625 30.8331H137.446H138.267L138.321 23.2554L138.375 15.6778H141.246H144.118V14.9461V14.2145H137.446H130.774V14.9461ZM84.4177 17.1933C84.1933 17.6818 83.6635 18.8813 83.2402 19.8585C82.8169 20.8358 82.2197 22.1998 81.913 22.8896C81.6065 23.5794 81.2899 24.3577 81.2094 24.6188L81.0635 25.0939L84.9281 25.0369C87.3696 25.0009 88.7754 24.9031 88.7464 24.771C88.6302 24.2438 85.0816 16.3074 84.9615 16.3064C84.887 16.3055 84.6423 16.7048 84.4177 17.1933Z" fill="black"/>
<path fill-rule="evenodd" clip-rule="evenodd" d="M34.8016 0.119369C32.591 0.62378 30.5221 1.75573 29.0202 3.28255C27.8597 4.46257 26.5699 6.44237 26.2472 7.53878C25.9698 8.48113 25.9764 8.48029 23.338 7.92759C20.4432 7.32096 17.0073 7.02016 14.7859 7.17861C10.3215 7.49718 5.48363 8.7395 2.5367 10.3242C1.01879 11.1405 1.03029 11.1384 3.8756 10.0853C10.1336 7.76893 17.141 7.3473 23.2775 8.91781L25.5077 9.48848L25.5402 10.6081C25.5677 11.5515 25.6627 11.8065 26.1441 12.2281C26.9041 12.8937 27.8998 12.8889 28.6129 12.216C29.5507 11.331 29.2348 10.2615 27.7706 9.36473C27.3471 9.10552 26.9716 8.87224 26.9361 8.84652C26.9006 8.82081 27.2129 8.10966 27.63 7.26619C29.7084 3.06389 34.0882 0.687748 38.4149 1.41541C45.9695 2.68574 47.1711 10.1969 41.3452 19.7314C38.6302 24.1743 33.8451 29.9298 30.0621 33.3022L28.4019 34.7822L25.4663 35.2613C20.2513 36.1123 16.1301 37.5047 15.3139 38.6912C14.8311 39.3934 14.906 40.3765 15.4849 40.9302C17.3561 42.7202 22.7367 41.156 27.599 37.4087C28.8849 36.4175 28.9459 36.3957 31.3406 36.0673C37.1002 35.2774 47.8179 34.6979 59.5389 34.5424C80.2037 34.2686 104.544 35.9632 122.768 38.9448C126.29 39.5209 132.211 40.686 135.634 41.4768C140.126 42.5143 138.744 41.9116 133.443 40.5213C120.124 37.0277 104.937 34.9649 81.7101 33.4945C77.3668 33.2196 72.7977 33.1339 61.8997 33.1234C47.4576 33.1096 43.7587 33.2363 35.3544 34.033C33.2438 34.2332 31.4929 34.3808 31.4638 34.3612C31.4346 34.3415 32.3303 33.3657 33.4545 32.1928C37.4724 28.0001 41.0732 23.2938 43.2277 19.4195C45.5895 15.1716 46.5297 11.8561 46.3522 8.39981C46.2641 6.68486 46.1598 6.25612 45.5017 4.90008C43.9324 1.66709 40.8909 -0.0576854 36.8627 0.00147258C35.9549 0.0148511 35.0274 0.0679459 34.8016 0.119369ZM26.5958 10.2105C26.5292 10.3203 26.5329 10.6461 26.6042 10.9346C26.7705 11.6092 27.4487 11.8414 27.8961 11.3771C28.2083 11.0527 28.1882 10.9915 27.6165 10.5205C26.9392 9.96259 26.7764 9.91304 26.5958 10.2105ZM21.6631 37.6964C18.9465 38.3994 16.6335 39.3026 16.6335 39.6607C16.6335 40.186 17.8946 40.2427 19.6184 39.7947C20.861 39.4717 24.1988 37.9219 24.9477 37.3203C25.3509 36.9963 25.349 36.9904 24.8451 36.998C24.5628 37.0022 23.1309 37.3163 21.6631 37.6964Z" fill="#F5207C"/>
</svg>
