<svg width="32" height="32" viewBox="0 0 32 32" fill="none" xmlns="http://www.w3.org/2000/svg">
<path d="M29.3332 10.667V17.3337C29.3332 22.667 26.6665 25.3337 21.3332 25.3337H20.6665C20.2532 25.3337 19.8532 25.5337 19.5998 25.867L17.5998 28.5337C16.7198 29.707 15.2798 29.707 14.3998 28.5337L12.3998 25.867C12.1865 25.5737 11.6932 25.3337 11.3332 25.3337H10.6665C5.33317 25.3337 2.6665 24.0003 2.6665 17.3337V10.667C2.6665 5.33366 5.33317 2.66699 10.6665 2.66699H15.9998" stroke="#F5207C" stroke-width="2" stroke-miterlimit="10" stroke-linecap="round" stroke-linejoin="round"/>
<path d="M20.2665 6.16043C19.8265 4.84043 20.3465 3.21377 21.7865 2.76043C22.5331 2.53377 23.4665 2.72043 23.9998 3.4271C24.5065 2.69377 25.4665 2.53377 26.2131 2.76043C27.6531 3.20043 28.1731 4.84043 27.7331 6.16043C27.0531 8.25377 24.6665 9.33377 23.9998 9.33377C23.3331 9.33377 20.9731 8.2671 20.2665 6.16043Z" stroke="#F5207C" stroke-width="2" stroke-linecap="round" stroke-linejoin="round"/>
<path d="M21.3288 14.6667H21.3408" stroke="#F5207C" stroke-width="2" stroke-linecap="round" stroke-linejoin="round"/>
<path d="M15.9938 14.6667H16.0058" stroke="#F5207C" stroke-width="2" stroke-linecap="round" stroke-linejoin="round"/>
<path d="M10.6593 14.6667H10.6713" stroke="#F5207C" stroke-width="2" stroke-linecap="round" stroke-linejoin="round"/>
</svg>
