<svg width="16" height="16" viewBox="0 0 16 16" fill="none" xmlns="http://www.w3.org/2000/svg">
<path d="M14.6667 11.6665H10" stroke="#B3B3B3" stroke-width="1.5" stroke-miterlimit="10" stroke-linecap="round" stroke-linejoin="round"/>
<path d="M3.33337 11.6665H1.33337" stroke="#B3B3B3" stroke-width="1.5" stroke-miterlimit="10" stroke-linecap="round" stroke-linejoin="round"/>
<path d="M14.6666 4.3335H12.6666" stroke="#B3B3B3" stroke-width="1.5" stroke-miterlimit="10" stroke-linecap="round" stroke-linejoin="round"/>
<path d="M6.00004 4.3335H1.33337" stroke="#B3B3B3" stroke-width="1.5" stroke-miterlimit="10" stroke-linecap="round" stroke-linejoin="round"/>
<path d="M4.66671 9.6665H8.66671C9.40004 9.6665 10 9.99984 10 10.9998V12.3332C10 13.3332 9.40004 13.6665 8.66671 13.6665H4.66671C3.93337 13.6665 3.33337 13.3332 3.33337 12.3332V10.9998C3.33337 9.99984 3.93337 9.6665 4.66671 9.6665Z" stroke="#B3B3B3" stroke-width="1.5" stroke-miterlimit="10" stroke-linecap="round" stroke-linejoin="round"/>
<path d="M7.33333 2.3335H11.3333C12.0667 2.3335 12.6667 2.66683 12.6667 3.66683V5.00016C12.6667 6.00016 12.0667 6.3335 11.3333 6.3335H7.33333C6.6 6.3335 6 6.00016 6 5.00016V3.66683C6 2.66683 6.6 2.3335 7.33333 2.3335Z" stroke="#B3B3B3" stroke-width="1.5" stroke-miterlimit="10" stroke-linecap="round" stroke-linejoin="round"/>
</svg>
