<svg width="40" height="40" viewBox="0 0 40 40" fill="none" xmlns="http://www.w3.org/2000/svg">
<path d="M20.8833 15.917C20.7108 16.0971 20.5705 16.2926 20.4668 16.4997C20.0962 17.1242 19.8953 17.907 19.9702 18.6323C20.0667 19.5642 20.5902 20.1313 21.2508 20.1382C21.6744 21.3059 21.8608 22.2936 21.942 23.0955L18.4072 23.8419C18.0936 23.908 17.8259 24.096 17.657 24.3683C17.4879 24.6405 17.4386 24.9639 17.5187 25.2742L18.7631 30.0947C18.899 30.6205 19.3728 30.9698 19.8923 30.9698C19.9887 30.9698 20.0867 30.9577 20.1844 30.9326C20.8082 30.7716 21.1836 30.1358 21.0227 29.5121L20.0828 25.872L21.8521 25.4984C21.8171 25.9356 21.7902 26.4818 21.7902 27.1303C21.7902 28.9949 22.0131 31.6954 22.9082 35.0055C23.0487 35.5254 23.5197 35.8677 24.0338 35.8677C24.1346 35.8677 24.237 35.8545 24.3389 35.827C24.961 35.6589 25.3288 35.0186 25.1607 34.397C24.3234 31.3012 24.1236 28.8096 24.1233 27.1302C24.1233 26.7058 24.1363 26.3349 24.1549 26.0179C25.3197 25.6076 26.3491 24.378 25.4165 22.686C24.9296 21.8027 24.642 21.08 24.4781 20.4706L21.9275 17.7277C21.7473 17.5338 21.6533 17.2812 21.6627 17.0166C21.6725 16.752 21.7846 16.5068 21.9788 16.3267C22.1626 16.1558 22.4024 16.0614 22.6537 16.0614C22.9284 16.0614 23.1933 16.1767 23.3803 16.3779L24.4499 17.528C24.4772 17.2014 24.4591 16.8876 24.314 16.5374C24.2956 16.4933 24.2766 16.4504 24.2571 16.4087C23.7566 15.3346 22.8605 15.0014 22.0404 15.2081C21.8249 15.1329 21.2585 14.9123 20.7001 14.5292V15.8904L20.8833 15.917Z" fill="black"/>
<path d="M19.2152 12.4017C19.2152 12.4014 19.2152 12.4011 19.2152 12.4011C19.1977 12.2782 19.1883 12.1494 19.1881 12.0132C19.1881 11.325 19.4315 10.4296 20.1782 9.28433C20.4069 8.93366 20.3081 8.46404 19.9572 8.23512C19.6064 8.00655 19.1366 8.10533 18.9078 8.456H18.9076C18.0474 9.77355 17.6715 10.9583 17.6715 12.0132C17.6715 12.2184 17.6856 12.4183 17.7134 12.612C17.7135 12.6131 17.7135 12.614 17.7136 12.6151C17.8239 13.3958 18.1491 14.0576 18.5548 14.5842C18.7851 14.8828 19.0393 15.141 19.2999 15.3648V12.7816C19.2635 12.6604 19.2344 12.5344 19.2152 12.4017Z" fill="black"/>
<path d="M26.4843 14.1406C27.1569 13.0419 26.8112 11.6062 25.712 10.9338C24.6128 10.2614 23.1765 10.6071 22.5038 11.7058C21.8312 12.8045 22.1769 14.2403 23.2761 14.9126C24.3753 15.585 25.8116 15.2394 26.4843 14.1406Z" fill="black"/>
<path d="M19.5437 7.8786C19.736 7.8786 19.923 7.93423 20.0847 8.03942C20.2658 8.15755 20.3944 8.3256 20.4667 8.51335V0H19.5333V7.87918C19.5368 7.87918 19.5402 7.8786 19.5437 7.8786Z" fill="black"/>
<path d="M20.4667 37.3177V31.0784C20.3954 31.1104 20.3212 31.1382 20.243 31.1584C20.128 31.188 20.01 31.203 19.8923 31.203C19.7688 31.203 19.6485 31.1865 19.5333 31.1559V37.3178H20.4667V37.3177Z" fill="black"/>
<path d="M20.3698 26.0496L20.4667 26.4252V26.0292L20.3698 26.0496Z" fill="black"/>
<path d="M20.4667 20.1075C20.0745 19.8164 19.8049 19.3027 19.7383 18.6562C19.6611 17.9081 19.8519 17.0814 20.2624 16.3863C20.3205 16.2718 20.3895 16.1609 20.4667 16.0538V9.23041C20.4423 9.29268 20.4115 9.35344 20.3736 9.41163C19.9568 10.0507 19.6766 10.6486 19.5333 11.1992V23.3657L20.4667 23.1686V20.1075Z" fill="black"/>
<path d="M30.5 37.6553H9.5V39.9876H30.5V37.6553Z" fill="black"/>
<path d="M27.2318 23.089C27.381 23.2495 27.5839 23.3308 27.7874 23.3308C27.9722 23.3308 28.1574 23.2637 28.3035 23.1279C28.6103 22.8429 28.628 22.3632 28.3429 22.0567L23.2094 16.5367C22.9244 16.2298 22.4444 16.2125 22.1377 16.4975C21.8308 16.7825 21.8135 17.2621 22.0985 17.5688L27.2318 23.089Z" fill="black"/>
</svg>
