<svg width="32" height="29" viewBox="0 0 32 29" fill="none" xmlns="http://www.w3.org/2000/svg">
<path d="M16.9897 7.53886C17.2422 8.0212 17.6218 8.42528 18.0875 8.70731C18.5532 8.98934 19.0872 9.13858 19.6316 9.13886H30.5116C30.7368 9.14064 30.9613 9.16565 31.1814 9.21327C30.8695 7.8622 29.6657 6.90555 28.279 6.9063H17.3916C17.1253 6.90549 16.8603 6.87053 16.6029 6.80226L16.9897 7.53886ZM2.9767 26.7686V5.96126C2.9761 4.31705 4.30924 2.98392 5.95344 2.98451H12.8075C13.0738 2.98503 13.3389 3.02023 13.5962 3.08855L13.2093 2.35195C12.9568 1.86961 12.5772 1.46553 12.1115 1.1835C11.6458 0.901469 11.1118 0.752232 10.5674 0.751953H3.72089C2.07668 0.751358 0.743545 2.08449 0.744141 3.7287V24.5359C0.74615 25.9217 1.70169 27.1237 3.05112 27.4382C3.0034 27.2181 2.97847 26.9937 2.9767 26.7685V26.7686Z" fill="#FA98C3"/>
<path d="M28.2791 6.16189H17.3916C16.9828 6.16209 16.5819 6.04971 16.2327 5.83707C15.8835 5.62444 15.5997 5.31976 15.4122 4.95646L13.8791 2.00204C13.5659 1.39658 13.0918 0.889288 12.5088 0.536048C11.9258 0.182809 11.2567 -0.00267456 10.575 2.91407e-05H3.72093C1.66623 0.000922164 0.000893023 1.66626 0 3.72096V24.5285C0.000893023 26.5832 1.66623 28.2486 3.72093 28.2495H28.2791C30.3338 28.2486 31.9991 26.5832 32 24.5285V9.88282C31.9991 7.82812 30.3338 6.16249 28.2791 6.16189ZM3.72093 1.49607H10.575C10.9838 1.49582 11.3848 1.60817 11.734 1.82079C12.0831 2.03342 12.367 2.33811 12.5543 2.70142L14.0875 5.65584C14.1826 5.83401 14.2895 6.0056 14.4075 6.16948H1.48837V3.73584C1.48867 2.50183 2.48692 1.50038 3.72093 1.49607ZM30.5116 24.5358C30.5081 25.7675 29.5105 26.7649 28.2791 26.7684H3.72093C2.48953 26.7649 1.49187 25.7675 1.48837 24.5358V7.65034H16.6622C16.7355 7.65182 16.8081 7.64193 16.8782 7.62064C17.0509 7.64423 17.2247 7.65674 17.3991 7.65785H28.2791C29.5105 7.66135 30.5081 8.65878 30.5116 9.89041V24.5358Z" fill="#F5207C"/>
</svg>
