<svg width="140" height="45" viewBox="0 0 140 45" fill="none" xmlns="http://www.w3.org/2000/svg">
<path d="M21.9248 0.914062H118.075C130.201 0.914062 140 10.7772 140 22.9141C140 35.0817 130.171 44.9141 118.075 44.9141H21.9248C9.79878 44.9141 0 35.0509 0 22.9141C0 10.7465 9.8294 0.914062 21.9248 0.914062Z" fill="black"/>
<path d="M35.9186 22.453L25.4768 12.6514C25.385 12.8972 25.2931 13.143 25.2931 13.481V31.5173C25.2931 31.8553 25.385 32.1011 25.4768 32.3469L35.9186 22.453Z" fill="white"/>
<path d="M37.1435 22.4533L40.6343 25.7102L44.462 23.6823C45.6868 23.0371 45.6868 21.9617 44.462 21.3164L40.5425 19.1963L37.1435 22.4533Z" fill="white"/>
<path d="M36.5311 21.8693L39.7463 18.7659L27.4672 12.2519C26.9466 12.0061 26.4261 11.9139 26.0892 12.0983L36.5311 21.8693Z" fill="white"/>
<path d="M36.5311 23.0059L26.0892 32.869C26.4261 33.0226 26.9466 32.9612 27.559 32.7154L39.8994 26.2014L36.5311 23.0059Z" fill="white"/>
<path d="M53.1278 12.3276C52.4235 12.3276 51.8111 12.5734 51.3211 13.0651C50.8312 13.5567 50.5862 14.1712 50.5862 14.9086C50.5862 15.6461 50.8312 16.2606 51.3211 16.7522C51.8111 17.2438 52.4235 17.4896 53.1278 17.4896C54.1076 17.4896 54.9344 16.9673 55.3631 16.1684V14.755H53.0971V15.4617H54.567V16.0148C54.2301 16.5371 53.7708 16.7829 53.1278 16.7829C52.6072 16.7829 52.1785 16.5986 51.8417 16.2606C51.5048 15.8919 51.3517 15.4617 51.3517 14.9086C51.3517 14.3863 51.5048 13.9254 51.8417 13.5874C52.1479 13.2494 52.5766 13.0651 53.0971 13.0651C53.7096 13.0651 54.1689 13.3416 54.5363 13.8639L55.0875 13.3723C54.6588 12.6963 53.9852 12.3276 53.1278 12.3276Z" fill="white"/>
<path d="M56.343 12.4199V17.4283H59.5888V16.7216H57.1085V15.1238H58.9152V14.4171H57.1085V13.1266H59.497V12.4199H56.343Z" fill="white"/>
<path d="M59.9869 12.4199V13.1266H61.6098V17.4283H62.3754V13.1266H63.9983V12.4199H59.9869Z" fill="white"/>
<path d="M66.4173 12.4194V17.4278H67.1829V12.4194H66.4173Z" fill="white"/>
<path d="M67.9178 12.4194V13.1261H69.5407V17.4278H70.3062V13.1261H71.9292V12.4194H67.9178Z" fill="white"/>
<path d="M76.553 12.3276C75.8487 12.3276 75.2363 12.5734 74.7463 13.0651C74.2564 13.5567 74.0114 14.1712 74.0114 14.9086C74.0114 15.6461 74.2564 16.2606 74.7463 16.7522C75.2363 17.2438 75.8181 17.4896 76.553 17.4896C77.2573 17.4896 77.8391 17.2438 78.329 16.7522C78.8189 16.2606 79.0639 15.6461 79.0639 14.9086C79.0639 14.1712 78.8189 13.5567 78.329 13.0651C77.8697 12.5734 77.2573 12.3276 76.553 12.3276ZM76.553 13.0651C77.0429 13.0651 77.4716 13.2494 77.7778 13.5874C78.1146 13.9254 78.2678 14.3863 78.2678 14.9086C78.2678 15.4617 78.1146 15.8919 77.7778 16.2299C77.441 16.5679 77.0429 16.7522 76.553 16.7522C76.063 16.7522 75.6343 16.5679 75.3281 16.2299C74.9913 15.8612 74.8382 15.431 74.8382 14.9086C74.8382 14.3863 74.9913 13.9254 75.3281 13.5874C75.665 13.2494 76.063 13.0651 76.553 13.0651Z" fill="white"/>
<path d="M83.1978 15.7997L80.2887 12.3276H80.0132V17.4282H80.7787V14.0483L83.7183 17.5204H83.9939V12.4198H83.2284V15.7997H83.1978Z" fill="white"/>
<path d="M55.0263 21.146C53.7708 21.146 52.7297 21.5762 51.8723 22.4672C51.0149 23.3276 50.5862 24.403 50.5862 25.6935C50.5862 26.984 51.0149 28.0594 51.8723 28.9197C52.7297 29.7801 53.7708 30.2102 55.0263 30.2102C56.7104 30.2102 58.2109 29.2885 58.9458 27.9058V25.4477H54.9957V26.7074H57.5985V27.66C57.0167 28.551 56.1899 28.9812 55.0875 28.9812C54.1689 28.9812 53.434 28.6739 52.8522 28.0594C52.2704 27.4449 51.9948 26.646 51.9948 25.6935C51.9948 24.7717 52.2704 24.0035 52.8216 23.389C53.3727 22.7745 54.1076 22.4672 54.9957 22.4672C56.0368 22.4672 56.8942 22.9281 57.5066 23.8499L58.4865 23.0203C57.6903 21.7605 56.5267 21.146 55.0263 21.146Z" fill="white"/>
<path d="M62.804 23.3887C61.8854 23.3887 61.0893 23.7267 60.4462 24.3719C59.8032 25.0172 59.497 25.8468 59.497 26.7993C59.497 27.7518 59.8032 28.5814 60.4462 29.2267C61.0893 29.8719 61.8548 30.2099 62.804 30.2099C63.7227 30.2099 64.4882 29.8719 65.1619 29.2267C65.8049 28.5507 66.1418 27.7518 66.1418 26.7993C66.1418 25.8468 65.8049 25.0172 65.1619 24.3719C64.5188 23.7267 63.7227 23.3887 62.804 23.3887ZM62.8347 24.6792C63.3859 24.6792 63.8452 24.8943 64.2126 25.2937C64.5801 25.6931 64.7638 26.1848 64.7638 26.7993C64.7638 27.3831 64.5801 27.9054 64.2126 28.3049C63.8452 28.7043 63.3859 28.8887 62.8347 28.8887C62.2835 28.8887 61.8242 28.7043 61.4567 28.3049C61.0893 27.9054 60.9055 27.3831 60.9055 26.7993C60.9055 26.1848 61.0893 25.6931 61.4567 25.2937C61.7935 24.8635 62.2529 24.6792 62.8347 24.6792Z" fill="white"/>
<path d="M69.9388 23.3887C69.0201 23.3887 68.224 23.7267 67.5809 24.3719C66.9379 25.0172 66.6317 25.8468 66.6317 26.7993C66.6317 27.7518 66.9379 28.5814 67.5809 29.2267C68.224 29.8719 68.9895 30.2099 69.9388 30.2099C70.8574 30.2099 71.6229 29.8719 72.2966 29.2267C72.9396 28.5507 73.2765 27.7518 73.2765 26.7993C73.2765 25.8468 72.9396 25.0172 72.2966 24.3719C71.6536 23.7267 70.8574 23.3887 69.9388 23.3887ZM69.9694 24.6792C70.5206 24.6792 70.9799 24.8943 71.3473 25.2937C71.7148 25.6931 71.8985 26.1848 71.8985 26.7993C71.8985 27.3831 71.7148 27.9054 71.3473 28.3049C70.9799 28.7043 70.5206 28.8887 69.9694 28.8887C69.4182 28.8887 68.9589 28.7043 68.5914 28.3049C68.224 27.9054 68.0403 27.3831 68.0403 26.7993C68.0403 26.1848 68.224 25.6931 68.5914 25.2937C68.9283 24.8635 69.3876 24.6792 69.9694 24.6792Z" fill="white"/>
<path d="M79.0945 24.4641C78.6046 23.7574 77.8697 23.3887 76.8898 23.3887C76.0018 23.3887 75.2975 23.6959 74.7157 24.3105C74.1339 24.925 73.8583 25.6931 73.8583 26.6764C73.8583 27.6289 74.1645 28.4278 74.7157 29.0423C75.2975 29.6568 76.0018 29.9641 76.8898 29.9641C77.8084 29.9641 78.4821 29.6568 79.0027 29.0423V29.5032C79.0027 30.7322 78.2678 31.3775 77.1348 31.3775C76.3999 31.3775 75.665 31.0702 74.93 30.4557L74.1951 31.4389C75.0219 32.2686 76.0324 32.668 77.196 32.668C79.0945 32.668 80.3194 31.5004 80.3194 29.4417V23.6038H79.0945V24.4641ZM77.1042 28.7043C76.553 28.7043 76.1243 28.52 75.7262 28.1512C75.3587 27.7518 75.175 27.2602 75.175 26.6764C75.175 26.0926 75.3587 25.601 75.7262 25.2015C76.0937 24.8328 76.553 24.6485 77.1042 24.6485C78.1453 24.6485 79.0027 25.3244 79.0027 26.6457C79.0027 27.3216 78.8189 27.8133 78.4515 28.182C78.0534 28.52 77.6247 28.7043 77.1042 28.7043Z" fill="white"/>
<path d="M81.6054 20.1011V30.0564H82.9528V20.1011H81.6054Z" fill="white"/>
<path d="M89.9957 26.3691C89.9957 25.5087 89.7201 24.802 89.1689 24.2182C88.6177 23.6344 87.944 23.3579 87.1173 23.3579C86.1986 23.3579 85.4331 23.6959 84.8207 24.3412C84.2083 24.9864 83.902 25.816 83.902 26.7685C83.902 27.7518 84.2083 28.5506 84.8513 29.1959C85.4943 29.8411 86.2905 30.1791 87.2704 30.1791C88.2196 30.1791 89.0464 29.8411 89.7813 29.1344L89.1383 28.1819C88.5871 28.7043 87.9747 28.9501 87.301 28.9501C86.2292 28.9501 85.4331 28.3048 85.2494 27.2294H89.9038C89.965 26.9529 89.9957 26.6456 89.9957 26.3691ZM87.056 24.587C87.9747 24.587 88.6483 25.2015 88.6483 26.1847H85.2494C85.4637 25.2015 86.168 24.587 87.056 24.587Z" fill="white"/>
<path d="M93.9152 21.2993V30.0563H95.2625V26.6764H96.9773C97.8347 26.6764 98.5083 26.4306 99.0595 25.939C99.5801 25.4474 99.8557 24.7714 99.8557 23.9725C99.8557 23.1736 99.5801 22.5284 99.0595 22.0368C98.539 21.5451 97.8347 21.2993 96.9773 21.2993H93.9152ZM96.9773 22.5284C97.9265 22.5284 98.4777 23.1122 98.4777 23.9725C98.4777 24.8328 97.9265 25.4166 96.9773 25.4166H95.2931V22.5284H96.9773Z" fill="white"/>
<path d="M100.621 20.1011V30.0564H101.969V20.1011H100.621Z" fill="white"/>
<path d="M105.674 23.3887C104.541 23.3887 103.653 23.8496 103.04 24.7714L103.806 25.601C104.326 24.9557 104.908 24.6177 105.551 24.6177C106.409 24.6177 106.899 25.1093 106.899 26.0004V26.4306H105.123C103.714 26.4306 102.826 27.168 102.826 28.3049C102.826 29.4417 103.683 30.1792 105 30.1792C105.857 30.1792 106.531 29.8719 106.99 29.2881V30.0255H108.246V26.0926C108.246 24.3719 107.235 23.3887 105.674 23.3887ZM105.276 29.1345C104.633 29.1345 104.173 28.8272 104.173 28.2741C104.173 27.7518 104.541 27.4753 105.276 27.4753H106.868V27.5982C106.899 28.4892 106.164 29.1345 105.276 29.1345Z" fill="white"/>
<path d="M111.982 28.305L110.175 23.5425H108.736L111.247 29.7799L111.002 30.3944C110.696 31.1319 110.267 31.3469 109.624 31.3469C109.532 31.3469 109.287 31.3469 108.889 31.2855V32.4531C109.226 32.5453 109.593 32.576 109.93 32.576C111.002 32.576 111.706 32.0229 112.227 30.7939L115.289 23.5425H113.85L111.982 28.305Z" fill="white"/>
</svg>
