<svg width="25" height="25" viewBox="0 0 25 25" fill="none" xmlns="http://www.w3.org/2000/svg">
<path d="M9.76648 10.2461C10.871 10.2461 11.7665 9.35066 11.7665 8.24609C11.7665 7.14152 10.871 6.24609 9.76648 6.24609C8.66191 6.24609 7.76648 7.14152 7.76648 8.24609C7.76648 9.35066 8.66191 10.2461 9.76648 10.2461Z" stroke="#F5207C" stroke-width="1.5" stroke-linecap="round" stroke-linejoin="round"/>
<path d="M13.7665 2.24609H9.76648C4.76648 2.24609 2.76648 4.24609 2.76648 9.24609V15.2461C2.76648 20.2461 4.76648 22.2461 9.76648 22.2461H15.7665C20.7665 22.2461 22.7665 20.2461 22.7665 15.2461V10.2461" stroke="#F5207C" stroke-width="1.5" stroke-linecap="round" stroke-linejoin="round"/>
<path d="M16.5165 5.24609H22.0165" stroke="#F5207C" stroke-width="1.5" stroke-linecap="round"/>
<path d="M19.2665 7.99609V2.49609" stroke="#F5207C" stroke-width="1.5" stroke-linecap="round"/>
<path d="M3.43646 19.1966L8.36646 15.8866C9.15646 15.3566 10.2965 15.4166 11.0065 16.0266L11.3365 16.3166C12.1165 16.9866 13.3765 16.9866 14.1565 16.3166L18.3165 12.7466C19.0965 12.0766 20.3565 12.0766 21.1365 12.7466L22.7665 14.1466" stroke="#F5207C" stroke-width="1.5" stroke-linecap="round" stroke-linejoin="round"/>
</svg>
