<svg width="20" height="20" viewBox="0 0 20 20" fill="none" xmlns="http://www.w3.org/2000/svg">
<path d="M13.7 3.33325C15.8405 3.33325 17.5837 5.07722 17.5837 7.24146C17.5837 8.03763 17.4725 8.77945 17.2761 9.47388L17.1863 9.7688L17.1853 9.77368C16.5807 11.687 15.3373 13.2413 13.9792 14.4084C12.788 15.4322 11.5413 16.1298 10.6394 16.4954L10.2751 16.6311L10.2673 16.634C10.2309 16.6469 10.1336 16.6663 9.99976 16.6663C9.93288 16.6662 9.87526 16.662 9.82983 16.6555L9.73315 16.634L9.72534 16.6311L9.36108 16.4954C8.45922 16.1298 7.21254 15.4323 6.02124 14.4084C4.74802 13.3142 3.57603 11.8798 2.93628 10.1282L2.81519 9.77368L2.81323 9.7688L2.72437 9.47388C2.52793 8.77943 2.41675 8.03766 2.41675 7.24146C2.41682 5.07722 4.15996 3.33325 6.30054 3.33325C7.56125 3.3334 8.69248 3.9464 9.39917 4.89087L9.99976 5.6936L10.6003 4.89087C11.3071 3.94621 12.439 3.33329 13.7 3.33325Z" fill="#FC4949" stroke="#FC4949" stroke-width="1.5"/>
</svg>
