<svg width="20" height="20" viewBox="0 0 20 20" fill="none" xmlns="http://www.w3.org/2000/svg">
<path d="M17.9296 3.19141V4.48789H16.9128V3.57539C16.9129 3.44571 16.8952 3.31663 16.8601 3.1918L17.9296 3.19141ZM3.1374 3.19414C3.10229 3.31898 3.08455 3.44805 3.08467 3.57773V4.49063H2.07021L2.06982 3.19453L3.1374 3.19414Z" fill="white"/>
<path d="M4.50333 2.1582H15.4971C15.8729 2.1582 16.2334 2.30751 16.4992 2.57329C16.765 2.83906 16.9143 3.19953 16.9143 3.57539V14.8827C16.9143 15.6675 16.6025 16.4203 16.0475 16.9753C15.4925 17.5302 14.7398 17.842 13.9549 17.842H6.04556C5.26068 17.842 4.50795 17.5302 3.95296 16.9753C3.39797 16.4203 3.08618 15.6675 3.08618 14.8827V3.57539C3.08618 3.19953 3.23549 2.83906 3.50127 2.57329C3.76704 2.30751 4.12747 2.1582 4.50333 2.1582Z" fill="#E6E6E6"/>
<path d="M3.08594 12.6152H16.9141V14.6638H3.08594V12.6152Z" fill="#F86AA7"/>
<path d="M2.07031 3.125C2.07031 2.65038 1.68556 2.26562 1.21094 2.26562C0.736318 2.26562 0.351562 2.65038 0.351562 3.125V4.57031C0.351562 5.04493 0.736318 5.42969 1.21094 5.42969C1.68556 5.42969 2.07031 5.04493 2.07031 4.57031V3.125Z" fill="#E6E6E6"/>
<path d="M19.6484 3.125C19.6484 2.65038 19.2637 2.26562 18.7891 2.26562C18.3144 2.26562 17.9297 2.65038 17.9297 3.125V4.57031C17.9297 5.04493 18.3144 5.42969 18.7891 5.42969C19.2637 5.42969 19.6484 5.04493 19.6484 4.57031V3.125Z" fill="#E6E6E6"/>
<path d="M12.8233 17.841L6.04678 17.8422C5.65816 17.8423 5.27332 17.7659 4.91425 17.6173C4.55517 17.4686 4.2289 17.2507 3.95405 16.976C3.6792 16.7012 3.46116 16.375 3.3124 16.016C3.16363 15.657 3.08704 15.2722 3.08701 14.8836L3.08545 8.27734C5.08113 12.5287 8.53665 15.9224 12.8233 17.841Z" fill="#CCCCCC"/>
<path d="M7.88125 14.6652L3.08594 14.666V12.6176L5.87148 12.6172C6.49033 13.3482 7.16206 14.0327 7.88125 14.6652Z" fill="#F5207C"/>
<path d="M17.9296 4.7223H16.9128C16.8506 4.7223 16.791 4.69761 16.7471 4.65366C16.7031 4.6097 16.6784 4.55009 16.6784 4.48793V3.57543C16.6785 3.46726 16.6637 3.3596 16.6345 3.25547C16.6246 3.22062 16.623 3.18397 16.6297 3.14839C16.6364 3.1128 16.6513 3.07926 16.6731 3.05038C16.695 3.02151 16.7232 2.99809 16.7556 2.98196C16.7881 2.96583 16.8238 2.95743 16.86 2.95742L17.9295 2.95703H17.9296C17.9918 2.95703 18.0514 2.98172 18.0953 3.02568C18.1393 3.06963 18.164 3.12925 18.164 3.19141V4.48793C18.164 4.55009 18.1393 4.6097 18.0953 4.65366C18.0514 4.69761 17.9918 4.7223 17.9296 4.7223ZM17.1472 4.25355H17.6952V3.4259L17.1405 3.42609C17.1449 3.4756 17.1472 3.52538 17.1472 3.57543V4.25355ZM3.08467 4.72504H2.07021C2.00807 4.72504 1.94847 4.70036 1.90451 4.65642C1.86056 4.61248 1.83586 4.55289 1.83584 4.49074L1.83545 3.19465C1.83544 3.16387 1.84149 3.13339 1.85326 3.10495C1.86503 3.07651 1.88228 3.05067 1.90404 3.0289C1.9258 3.00713 1.95163 2.98985 1.98006 2.97807C2.00849 2.96628 2.03897 2.96021 2.06975 2.9602L3.13732 2.9598H3.1374C3.17361 2.9598 3.20933 2.96819 3.24176 2.98431C3.27418 3.00043 3.30243 3.02385 3.32429 3.05272C3.34614 3.08159 3.36101 3.11514 3.36773 3.15072C3.37444 3.18631 3.37282 3.22296 3.36299 3.25781C3.33372 3.36194 3.31894 3.46961 3.31904 3.57777V4.49066C3.31904 4.55282 3.29435 4.61244 3.2504 4.65639C3.20644 4.70035 3.14683 4.72504 3.08467 4.72504ZM2.30451 4.25629H2.85029V3.57777C2.85029 3.52788 2.85251 3.47819 2.85693 3.42871L2.30428 3.42887L2.30451 4.25629Z" fill="black"/>
<path d="M6.04604 18.0777C5.62671 18.0777 5.21148 17.9952 4.82406 17.8347C4.43664 17.6743 4.08461 17.4391 3.78808 17.1426C3.49155 16.8461 3.25632 16.4941 3.09583 16.1067C2.93533 15.7193 2.85271 15.3041 2.85269 14.8847L2.85151 8.39922C2.8515 8.33706 2.87619 8.27744 2.92013 8.23348C2.96408 8.18952 3.02369 8.16481 3.08585 8.1648C3.14801 8.16479 3.20763 8.18948 3.25159 8.23342C3.29555 8.27737 3.32025 8.33698 3.32026 8.39914L3.32144 14.8847C3.32146 15.2425 3.39196 15.5967 3.52889 15.9273C3.66583 16.2578 3.86653 16.5581 4.11954 16.8111C4.37254 17.064 4.67289 17.2647 5.00344 17.4016C5.33399 17.5385 5.68827 17.6089 6.04604 17.6089H6.04675L13.9561 17.6077C14.6786 17.6066 15.3712 17.3191 15.8819 16.8081C16.3927 16.2971 16.68 15.6044 16.6808 14.882L16.6784 3.575C16.6785 3.26146 16.5539 2.96075 16.3323 2.73901C16.1106 2.51726 15.8099 2.39265 15.4964 2.39258H15.4958L4.50194 2.39453C4.18835 2.39487 3.8877 2.51959 3.66595 2.74133C3.44419 2.96307 3.31945 3.26371 3.31909 3.5773L3.31948 6.36793C3.31949 6.39871 3.31343 6.42919 3.30165 6.45762C3.28987 6.48606 3.27261 6.5119 3.25085 6.53366C3.2069 6.57762 3.14729 6.60232 3.08513 6.60232C3.02297 6.60233 2.96335 6.57764 2.91939 6.53369C2.87544 6.48974 2.85074 6.43013 2.85073 6.36797L2.85034 3.57734C2.85084 3.13947 3.025 2.71968 3.33462 2.41006C3.64424 2.10044 4.06403 1.92628 4.5019 1.92578L15.4956 1.92383H15.4965C15.9344 1.92391 16.3542 2.09791 16.6638 2.40755C16.9734 2.71719 17.1472 3.13712 17.1472 3.57496L17.1496 14.882C17.1486 15.7287 16.8119 16.5405 16.2133 17.1394C15.6147 17.7382 14.803 18.0753 13.9562 18.0765L6.04686 18.0777H6.04604Z" fill="black"/>
<path d="M3.08555 7.8125C3.02339 7.8125 2.96377 7.78781 2.91982 7.74385C2.87586 7.6999 2.85117 7.64028 2.85117 7.57812V7.1875C2.85117 7.12534 2.87586 7.06572 2.91982 7.02177C2.96377 6.97782 3.02339 6.95312 3.08555 6.95312C3.14771 6.95312 3.20732 6.97782 3.25128 7.02177C3.29523 7.06572 3.31992 7.12534 3.31992 7.1875V7.57812C3.31992 7.64028 3.29523 7.6999 3.25128 7.74385C3.20732 7.78781 3.14771 7.8125 3.08555 7.8125ZM3.08617 14.8996C3.05539 14.8996 3.02492 14.8936 2.99648 14.8818C2.96804 14.87 2.9422 14.8527 2.92043 14.831C2.89866 14.8092 2.8814 14.7834 2.86961 14.755C2.85783 14.7265 2.85176 14.6961 2.85176 14.6653L2.85137 12.6167C2.85136 12.5859 2.85742 12.5555 2.86919 12.527C2.88097 12.4986 2.89823 12.4727 2.91999 12.451C2.94175 12.4292 2.96758 12.4119 2.99601 12.4002C3.02445 12.3884 3.05492 12.3823 3.0857 12.3823L16.9138 12.3798C16.976 12.3798 17.0356 12.4045 17.0796 12.4485C17.1235 12.4924 17.1482 12.552 17.1482 12.6142L17.1486 14.6628C17.1486 14.7249 17.1239 14.7845 17.08 14.8285C17.036 14.8724 16.9764 14.8971 16.9143 14.8971L3.08617 14.8996ZM3.32016 12.851L3.32047 14.4308L16.6798 14.4285L16.6795 12.8486L3.32016 12.851ZM1.21094 5.66406C0.920955 5.66374 0.642942 5.5484 0.437893 5.34336C0.232845 5.13831 0.117508 4.86029 0.117188 4.57031V3.125C0.117188 2.83492 0.232422 2.55672 0.437539 2.3516C0.642657 2.14648 0.920857 2.03125 1.21094 2.03125C1.50102 2.03125 1.77922 2.14648 1.98434 2.3516C2.18945 2.55672 2.30469 2.83492 2.30469 3.125V4.57031C2.30437 4.86029 2.18903 5.13831 1.98398 5.34336C1.77893 5.5484 1.50092 5.66374 1.21094 5.66406ZM1.21094 2.5C1.04523 2.50019 0.886371 2.56609 0.769201 2.68326C0.652031 2.80043 0.586124 2.9593 0.585938 3.125V4.57031C0.585938 4.73607 0.651785 4.89504 0.768996 5.01225C0.886206 5.12946 1.04518 5.19531 1.21094 5.19531C1.3767 5.19531 1.53567 5.12946 1.65288 5.01225C1.77009 4.89504 1.83594 4.73607 1.83594 4.57031V3.125C1.83575 2.9593 1.76984 2.80043 1.65267 2.68326C1.5355 2.56609 1.37664 2.50019 1.21094 2.5ZM18.7891 5.66406C18.4991 5.66374 18.2211 5.5484 18.016 5.34336C17.811 5.13831 17.6956 4.86029 17.6953 4.57031V3.125C17.6953 2.83492 17.8105 2.55672 18.0157 2.3516C18.2208 2.14648 18.499 2.03125 18.7891 2.03125C19.0791 2.03125 19.3573 2.14648 19.5625 2.3516C19.7676 2.55672 19.8828 2.83492 19.8828 3.125V4.57031C19.8825 4.86029 19.7672 5.13831 19.5621 5.34336C19.3571 5.5484 19.079 5.66374 18.7891 5.66406ZM18.7891 2.5C18.6234 2.50019 18.4645 2.56609 18.3473 2.68326C18.2302 2.80043 18.1642 2.9593 18.1641 3.125V4.57031C18.1641 4.73607 18.2299 4.89504 18.3471 5.01225C18.4643 5.12946 18.6233 5.19531 18.7891 5.19531C18.9548 5.19531 19.1138 5.12946 19.231 5.01225C19.3482 4.89504 19.4141 4.73607 19.4141 4.57031V3.125C19.4139 2.9593 19.348 2.80043 19.2308 2.68326C19.1136 2.56609 18.9548 2.50019 18.7891 2.5Z" fill="black"/>
</svg>
