<svg width="20" height="20" viewBox="0 0 20 20" fill="none" xmlns="http://www.w3.org/2000/svg">
<path d="M4.28394 16.3887H15.7164V19.6109H4.28394V16.3887Z" fill="#F86AA7"/>
<path d="M8.04688 0.392578H11.9531V1.9548H8.04688V0.392578Z" fill="#F86AA7"/>
<path d="M9.21875 1.95508H10.7812V16.3895H9.21875V1.95508Z" fill="#F5F5F5"/>
<path d="M7.20972 17.6191C6.9937 17.6191 6.81909 17.7937 6.81909 18.0098C6.81909 18.2254 6.9937 18.4004 7.20972 18.4004C7.42534 18.4004 7.60034 18.2254 7.60034 18.0098C7.60034 17.7937 7.42534 17.6191 7.20972 17.6191ZM12.7906 18.4004C13.0058 18.4004 13.1808 18.225 13.1808 18.0098C13.1808 17.7941 13.0058 17.6191 12.7906 17.6191C12.575 17.6191 12.3996 17.7941 12.3996 18.0098C12.3996 18.225 12.575 18.4004 12.7906 18.4004ZM8.63159 18.4004H11.3687C11.5839 18.4004 11.7589 18.225 11.7589 18.0098C11.7589 17.7941 11.5839 17.6191 11.3687 17.6191H8.63159C8.41597 17.6191 8.24097 17.7941 8.24097 18.0098C8.24097 18.225 8.41597 18.4004 8.63159 18.4004ZM19.6093 19.2172C19.3941 19.2172 19.2187 19.3922 19.2187 19.6078C19.2187 19.823 19.3941 19.9984 19.6093 19.9984C19.8246 19.9984 19.9999 19.823 19.9999 19.6078C19.9999 19.3922 19.8246 19.2172 19.6093 19.2172Z" fill="black"/>
<path d="M18.0469 19.2176H16.1068V16.3892C16.1068 16.1735 15.9319 15.9986 15.7161 15.9986H11.1719V2.34543H11.9531C12.1689 2.34543 12.3438 2.17055 12.3438 1.9548V0.392578C12.3438 0.176836 12.1689 0.00195312 11.9531 0.00195312H8.04688C7.83113 0.00195312 7.65625 0.176836 7.65625 0.392578V1.9548C7.65625 2.17055 7.83113 2.34543 8.04688 2.34543H8.82812V15.9986H4.28387C4.06812 15.9986 3.89324 16.1735 3.89324 16.3892V19.2176H0.390625C0.175391 19.2176 0 19.3926 0 19.6082C0 19.8234 0.175391 19.9988 0.390625 19.9988H18.0469C18.2621 19.9988 18.4375 19.8234 18.4375 19.6082C18.4375 19.3926 18.2621 19.2176 18.0469 19.2176ZM8.4375 0.783203H11.5625V1.56418H8.4375V0.783203ZM9.60938 2.34547H10.3906V15.9986H9.60938V2.34547ZM4.67449 18.4007H5.78777C6.00352 18.4007 6.1784 18.2258 6.1784 18.01C6.1784 17.7943 6.00352 17.6194 5.78777 17.6194H4.67449V16.7798H15.3255V17.6194H14.2122C13.9965 17.6194 13.8216 17.7943 13.8216 18.01C13.8216 18.2258 13.9965 18.4007 14.2122 18.4007H15.3255V19.2176H4.67449V18.4007Z" fill="black"/>
</svg>
