<svg width="20" height="20" viewBox="0 0 20 20" fill="none" xmlns="http://www.w3.org/2000/svg">
<g clip-path="url(#clip0_286_19317)">
<path d="M15.8374 3.29883H4.16284V19.5921H15.8374V3.29883Z" fill="#F86AA7"/>
<path d="M16.4766 0.40625H3.52344V3.29832H16.4766V0.40625Z" fill="#CCCCCC"/>
<path d="M15.8374 5.78516H4.16284V17.109H15.8374V5.78516Z" fill="#F5F5F5"/>
<path d="M16.2447 3.70672H16.4767C16.7017 3.70672 16.8841 3.52437 16.8841 3.29937V0.407344C16.884 0.182344 16.7017 0 16.4767 0H3.52355C3.29855 0 3.11621 0.182344 3.11621 0.407344V3.29941C3.11621 3.52437 3.29855 3.70676 3.52355 3.70676H3.75555V19.5927C3.75555 19.8177 3.93789 20 4.16289 20H15.8374C16.0623 20 16.2447 19.8177 16.2447 19.5927V3.70672ZM3.93086 2.89207V0.814648H16.0693V2.89203L3.93086 2.89207ZM15.43 16.7006H4.5702V6.19145H15.43V16.7006ZM4.5702 19.1854V17.5153H15.43V19.1854H4.5702ZM15.43 5.3768H4.5702V3.70672H15.43V5.3768Z" fill="black"/>
<path d="M5.72302 16.0901H10C10.225 16.0901 10.4074 15.9077 10.4074 15.6827C10.4074 15.4578 10.225 15.2754 10 15.2754H5.72302C5.49806 15.2754 5.31567 15.4577 5.31567 15.6827C5.31567 15.9077 5.49806 16.0901 5.72302 16.0901Z" fill="black"/>
<path d="M11.5887 16.0901H11.9146C12.1396 16.0901 12.3219 15.9077 12.3219 15.6827C12.3219 15.4578 12.1396 15.2754 11.9146 15.2754H11.5887C11.3638 15.2754 11.1814 15.4577 11.1814 15.6827C11.1814 15.9077 11.3638 16.0901 11.5887 16.0901Z" fill="black"/>
</g>
<defs>
<clipPath id="clip0_286_19317">
<rect width="20" height="20" fill="white"/>
</clipPath>
</defs>
</svg>
