<svg width="20" height="20" viewBox="0 0 20 20" fill="none" xmlns="http://www.w3.org/2000/svg">
<path d="M3.08453 15.8287C0.74553 12.362 2.92853 8.26202 2.92853 8.26202C4.1462 5.40035 4.79053 2.29135 4.79053 2.29135H6.01053V5.46468C6.01053 7.66802 7.79653 9.45435 9.99987 9.45435C12.2032 9.45435 13.9899 7.66802 13.9899 5.46435V2.29102H15.2095C15.2095 2.29102 15.8535 5.40035 17.0712 8.26202C17.0712 8.26202 19.2542 12.362 16.9155 15.8287H3.08453Z" fill="#E6E6E6"/>
<path d="M16.9152 16.1614H3.0845C3.02987 16.1614 2.97606 16.148 2.92782 16.1224C2.87958 16.0968 2.83837 16.0597 2.80783 16.0144C0.385167 12.4227 2.54117 8.27903 2.6345 8.10437C3.81183 5.33437 4.4575 2.2537 4.46383 2.2227C4.47947 2.14765 4.5205 2.08029 4.58 2.03196C4.6395 1.98363 4.71384 1.95729 4.7905 1.95736H6.0105C6.09891 1.95736 6.18369 1.99248 6.2462 2.055C6.30872 2.11751 6.34383 2.20229 6.34383 2.2907V5.46403C6.34383 7.48003 7.98383 9.12037 9.99984 9.12037C12.0158 9.12037 13.6562 7.48003 13.6562 5.4637V2.29036C13.6562 2.20196 13.6913 2.11717 13.7538 2.05466C13.8163 1.99215 13.9011 1.95703 13.9895 1.95703H15.2095C15.2861 1.95704 15.3604 1.98347 15.4199 2.03186C15.4793 2.08025 15.5203 2.14765 15.5358 2.2227C15.5425 2.2537 16.1882 5.33436 17.3778 8.1307C17.4585 8.27903 19.6145 12.4227 17.1915 16.014C17.161 16.0593 17.1199 16.0965 17.0717 16.1222C17.0235 16.1479 16.9698 16.1613 16.9152 16.1614ZM3.26483 15.4947H16.7348C18.7798 12.262 16.7975 8.4567 16.7768 8.41803C15.7555 6.02003 15.1282 3.4437 14.9415 2.62403H14.3228V5.46403C14.3228 7.84736 12.3835 9.78703 9.99984 9.78703C7.61617 9.78703 5.67683 7.8477 5.67683 5.4637V2.6237H5.05817C4.87217 3.44303 4.2465 6.01537 3.23483 8.3917C3.2025 8.45603 1.22583 12.2694 3.26483 15.4947Z" fill="black"/>
<path d="M3.08447 15.8281H16.9155V17.7085H3.08447V15.8281Z" fill="#F86AA7"/>
<path d="M16.9152 18.0408H3.08455C2.99615 18.0408 2.91136 18.0057 2.84885 17.9432C2.78634 17.8807 2.75122 17.7959 2.75122 17.7075V15.8275C2.75122 15.7391 2.78634 15.6543 2.84885 15.5918C2.91136 15.5293 2.99615 15.4941 3.08455 15.4941H16.9152C17.0036 15.4941 17.0884 15.5293 17.1509 15.5918C17.2134 15.6543 17.2486 15.7391 17.2486 15.8275V17.7075C17.2486 17.7959 17.2134 17.8807 17.1509 17.9432C17.0884 18.0057 17.0036 18.0408 16.9152 18.0408ZM3.41789 17.3741H16.5819V16.1608H3.41789V17.3741Z" fill="black"/>
</svg>
