<svg width="40" height="40" viewBox="0 0 40 40" fill="none" xmlns="http://www.w3.org/2000/svg">
<path d="M20.7 22.2937L22.0868 21.5416C22.3648 21.1097 22.6499 20.6043 22.9244 20.0103C22.8035 19.857 22.7224 19.6829 22.6783 19.4962L20.7 20.569V22.2937Z" fill="black"/>
<path d="M19.2997 21.3284L18.8075 21.5953C18.7901 21.6046 18.7738 21.6151 18.7573 21.6259L19.2996 21.9504L19.2997 21.3284Z" fill="black"/>
<path d="M20.4667 37.3175V26.0307C20.3545 25.9377 20.2527 25.8371 20.1639 25.7295L19.5333 25.3522V37.3175H20.4667Z" fill="black"/>
<path d="M20.4667 22.6488V14.9736L19.5333 14.1814V22.0903L20.4667 22.6488Z" fill="black"/>
<path d="M19.6169 11.9602C19.8514 11.9602 20.0791 12.0438 20.2579 12.1958L20.4667 12.3727V0H19.5333V11.9648C19.561 11.9624 19.5889 11.9602 19.6169 11.9602Z" fill="black"/>
<path d="M30.5 37.6554H9.5V39.9878H30.5V37.6554Z" fill="black"/>
<path d="M20.3192 25.5507C21.1983 26.6634 23.7486 27.1476 24.4172 24.6957C25.5726 20.4599 27.3189 20.9962 27.9061 19.5134C28.5037 18.0053 27.6666 16.9347 26.5057 16.7275C26.1796 16.6681 25.8675 16.6645 25.5769 16.7098L26.4414 17.4435C26.6432 17.615 26.7663 17.8545 26.7882 18.1186C26.8097 18.3824 26.727 18.6388 26.5556 18.8408C26.3666 19.0631 26.091 19.1904 25.7991 19.1904C25.5646 19.1904 25.3367 19.1068 25.1576 18.9548L23.6369 17.6641C23.5261 17.7685 23.4211 17.8782 23.3284 17.996C22.7488 18.7326 22.73 19.5043 23.1997 19.9685C22.4777 21.5768 21.6652 22.5903 21.0444 23.2663L11.7184 17.6846C11.1656 17.3537 10.4492 17.5336 10.1181 18.0861C9.78698 18.6384 9.96688 19.3548 10.5198 19.6856L20.3192 25.5507Z" fill="black"/>
<path d="M25.3088 18.7771C25.4515 18.8983 25.6258 18.9575 25.7994 18.9575C26.0143 18.9575 26.2278 18.8667 26.3777 18.6899C26.6489 18.3708 26.6098 17.8925 26.2905 17.6217L20.1071 12.3736C19.7881 12.1028 19.3093 12.142 19.0382 12.4609C18.7672 12.7799 18.8063 13.2583 19.1257 13.5293L25.3088 18.7771Z" fill="black"/>
<path d="M30.3991 14.9243C30.7818 13.6944 30.0945 12.3873 28.864 12.0047C27.6334 11.6221 26.3256 12.309 25.9429 13.5389C25.5602 14.7688 26.2476 16.076 27.4781 16.4586C28.7086 16.8412 30.0164 16.1543 30.3991 14.9243Z" fill="black"/>
</svg>
