<svg width="140" height="45" viewBox="0 0 140 45" fill="none" xmlns="http://www.w3.org/2000/svg">
<path d="M21.9248 1.34424H118.075C129.956 1.34424 139.571 10.9923 139.571 22.9141C139.571 34.8359 129.956 44.4839 118.075 44.4839H21.9248C10.0438 44.4839 0.428711 34.8359 0.428711 22.9141C0.428711 10.9923 10.0438 1.34424 21.9248 1.34424Z" fill="black"/>
<path d="M52.923 12.6514V17.6597H54.4234C55.2196 17.6597 55.832 17.4139 56.3219 16.953C56.8119 16.4921 57.0262 15.8776 57.0262 15.1402C57.0262 14.4028 56.7812 13.7882 56.3219 13.3273C55.8626 12.8665 55.2196 12.6514 54.4234 12.6514H52.923ZM54.4234 13.3888C54.9746 13.3888 55.4339 13.5424 55.7401 13.8804C56.077 14.1877 56.2301 14.6178 56.2301 15.1709C56.2301 15.6933 56.077 16.1234 55.7401 16.4614C55.4033 16.7994 54.9746 16.953 54.4234 16.953H53.6885V13.3888H54.4234Z" fill="white"/>
<path d="M59.5678 13.8496C59.0472 13.8496 58.5879 14.034 58.2204 14.4027C57.853 14.7714 57.6693 15.2323 57.6693 15.7854C57.6693 16.3384 57.853 16.7993 58.2204 17.168C58.5879 17.5368 59.0166 17.7211 59.5678 17.7518C60.0883 17.7518 60.5476 17.5675 60.9151 17.1988C61.2825 16.8301 61.4663 16.3692 61.4663 15.8161C61.4663 15.263 61.2825 14.8021 60.9151 14.4334C60.517 14.034 60.0883 13.8496 59.5678 13.8496ZM59.5678 14.587C59.874 14.587 60.1496 14.7099 60.3639 14.9558C60.5783 15.1708 60.6701 15.4781 60.6701 15.8161C60.6701 16.1541 60.5476 16.4613 60.3639 16.6764C60.1496 16.8915 59.874 17.0144 59.5678 17.0144C59.2616 17.0144 58.986 16.8915 58.7716 16.6764C58.5573 16.4306 58.4654 16.1541 58.4654 15.8161C58.4654 15.4781 58.5573 15.1708 58.7716 14.9558C58.986 14.7099 59.2616 14.587 59.5678 14.587Z" fill="white"/>
<path d="M65.9676 16.3384L64.8652 13.8496H64.5896L63.5179 16.3692L62.5687 13.9418H61.7419L63.3342 17.7518H63.6098L64.7428 15.263L65.8757 17.7518H66.1513L67.713 13.9418H66.8862L65.9676 16.3384Z" fill="white"/>
<path d="M70.1627 13.8496C69.734 13.8496 69.3666 14.0032 69.091 14.3105V13.9418H68.3867V17.6597H69.1522V15.4474C69.1522 14.925 69.4891 14.587 69.979 14.587C70.4383 14.587 70.7445 14.925 70.7445 15.4474V17.6597H71.5101V15.3245C71.5101 14.4334 70.9895 13.8496 70.1627 13.8496Z" fill="white"/>
<path d="M72.5512 11.9756V17.6599H73.3167V11.9756H72.5512Z" fill="white"/>
<path d="M76.0726 13.8496C75.5521 13.8496 75.0927 14.034 74.7253 14.4027C74.3578 14.7714 74.1741 15.2323 74.1741 15.7854C74.1741 16.3384 74.3578 16.7993 74.7253 17.168C75.0927 17.5368 75.5214 17.7211 76.0726 17.7518C76.5932 17.7518 77.0525 17.5675 77.4199 17.1988C77.7874 16.8301 77.9711 16.3692 77.9711 15.8161C77.9711 15.263 77.7874 14.8021 77.4199 14.4334C77.0525 14.034 76.5932 13.8496 76.0726 13.8496ZM76.1032 14.587C76.4094 14.587 76.685 14.7099 76.8994 14.9558C77.1137 15.1708 77.2056 15.4781 77.2056 15.8161C77.2056 16.1541 77.0831 16.4613 76.8994 16.6764C76.685 16.8915 76.4094 17.0144 76.1032 17.0144C75.797 17.0144 75.5214 16.8915 75.3071 16.6764C75.0927 16.4306 75.0009 16.1541 75.0009 15.8161C75.0009 15.4781 75.0927 15.1708 75.3071 14.9558C75.4908 14.7099 75.7664 14.587 76.1032 14.587Z" fill="white"/>
<path d="M80.2371 13.8496C79.594 13.8496 79.1041 14.1261 78.7366 14.6485L79.1653 15.1094C79.4715 14.7407 79.8084 14.5563 80.1452 14.5563C80.6351 14.5563 80.9107 14.8328 80.9107 15.3552V15.601H79.9002C79.1041 15.601 78.5835 16.0312 78.5835 16.6764C78.5835 17.3217 79.0735 17.7518 79.839 17.7518C80.3289 17.7518 80.6964 17.5982 80.972 17.2602V17.6904H81.6763V15.4474C81.6763 14.4027 81.0945 13.8496 80.2371 13.8496ZM79.9921 17.1373C79.6246 17.1373 79.3797 16.953 79.3797 16.6457C79.3797 16.3384 79.594 16.1848 80.0227 16.1848H80.9414V16.2463C80.9107 16.7686 80.5127 17.1373 79.9921 17.1373Z" fill="white"/>
<path d="M85.4427 14.4029C85.1671 14.0342 84.769 13.8499 84.2485 13.8499C83.7585 13.8499 83.3298 14.0342 82.993 14.4029C82.6562 14.7716 82.5031 15.2325 82.5031 15.7856C82.5031 16.3387 82.6562 16.7996 82.993 17.1683C83.3298 17.537 83.7279 17.7214 84.2485 17.7214C84.7996 17.7214 85.2283 17.5063 85.5039 17.1068V17.6292H86.2082V11.9448H85.4427V14.4029ZM84.4016 17.0147C84.0954 17.0147 83.8198 16.8918 83.6054 16.6767C83.3911 16.4616 83.2992 16.1543 83.2992 15.7856C83.2992 15.4169 83.3911 15.1404 83.6054 14.9253C83.8198 14.7102 84.0647 14.5873 84.4016 14.5873C84.6772 14.5873 84.9527 14.6795 85.1671 14.8945C85.3814 15.1096 85.4733 15.4169 85.4733 15.7856C85.4733 16.6152 84.9834 17.0147 84.4016 17.0147Z" fill="white"/>
<path d="M91.0158 13.8496C90.4952 13.8496 90.0359 14.034 89.6684 14.4027C89.301 14.7714 89.1172 15.2323 89.1172 15.7854C89.1172 16.3384 89.301 16.7993 89.6684 17.168C90.0359 17.5368 90.4646 17.7211 91.0158 17.7518C91.5363 17.7518 91.9956 17.5675 92.3631 17.1988C92.7305 16.8301 92.9143 16.3692 92.9143 15.8161C92.9143 15.263 92.7305 14.8021 92.3631 14.4334C91.965 14.034 91.5363 13.8496 91.0158 13.8496ZM91.0158 14.587C91.322 14.587 91.5976 14.7099 91.8119 14.9558C92.0263 15.1708 92.1181 15.4781 92.1181 15.8161C92.1181 16.1541 91.9956 16.4613 91.8119 16.6764C91.5976 16.8915 91.322 17.0144 91.0158 17.0144C90.7096 17.0144 90.434 16.8915 90.2196 16.6764C90.0053 16.4306 89.9134 16.1541 89.9134 15.8161C89.9134 15.4781 90.0053 15.1708 90.2196 14.9558C90.434 14.7099 90.7096 14.587 91.0158 14.587Z" fill="white"/>
<path d="M95.5477 13.8496C95.119 13.8496 94.7515 14.0032 94.476 14.3105V13.9418H93.7717V17.6597H94.5372V15.4474C94.5372 14.925 94.874 14.587 95.364 14.587C95.8233 14.587 96.1295 14.925 96.1295 15.4474V17.6597H96.895V15.3245C96.895 14.4334 96.4051 13.8496 95.5477 13.8496Z" fill="white"/>
<path d="M101.641 17.0144C101.182 17.0144 100.937 16.8607 100.937 16.3691V14.6177H102.009V13.9417H100.937V12.9585H100.172V13.9417H99.5897V14.6177H100.172V16.4306C100.172 17.2909 100.661 17.7211 101.488 17.7211C101.672 17.7211 101.886 17.6903 102.131 17.6289V16.9529C101.886 17.0144 101.733 17.0144 101.641 17.0144Z" fill="white"/>
<path d="M104.673 13.8499C104.244 13.8499 103.907 14.0035 103.632 14.3108V11.9756H102.866V17.6599H103.632V15.4477C103.632 14.9253 103.969 14.5873 104.458 14.5873C104.918 14.5873 105.224 14.9253 105.224 15.4477V17.6599H105.99V15.3247C105.99 14.4644 105.5 13.8499 104.673 13.8499Z" fill="white"/>
<path d="M110.338 15.5703C110.338 15.0787 110.185 14.6792 109.878 14.3412C109.572 14.0032 109.174 13.8496 108.715 13.8496C108.194 13.8496 107.766 14.034 107.398 14.4334C107.031 14.8021 106.878 15.263 106.878 15.8161C106.878 16.3692 107.061 16.8301 107.429 17.1988C107.796 17.5675 108.255 17.7518 108.807 17.7518C109.358 17.7518 109.817 17.5675 110.215 17.1373L109.848 16.5842C109.542 16.8915 109.174 17.0144 108.807 17.0144C108.194 17.0144 107.735 16.6457 107.643 16.0312H110.307C110.307 15.8775 110.338 15.7239 110.338 15.5703ZM108.654 14.5256C109.174 14.5256 109.572 14.8943 109.572 15.4474H107.643C107.735 14.8943 108.133 14.5256 108.654 14.5256Z" fill="white"/>
<path d="M60.9764 31.0256L56.9956 21.4697H56.5057L52.5555 31.0256H54.0866L54.7296 29.4586H58.7716L59.4147 31.0256H60.9764ZM55.2502 28.1681L56.7506 24.2658L58.2205 28.1681H55.2502Z" fill="white"/>
<path d="M65.692 23.8662C64.7122 23.8662 63.8548 24.2964 63.3648 25.0338V24.0506H62.0175V33.6064H63.4567V30.1958C63.9772 30.8718 64.7428 31.1791 65.692 31.1791C66.6413 31.1791 67.4374 30.8411 68.0499 30.1344C68.6623 29.4277 68.9685 28.5673 68.9685 27.5226C68.9685 26.4779 68.6623 25.6176 68.0499 24.9109C67.4374 24.2042 66.6413 23.8662 65.692 23.8662ZM65.4471 29.7964C64.8959 29.7964 64.4059 29.612 64.0079 29.2126C63.6098 28.8131 63.4261 28.2601 63.4261 27.4919C63.4261 25.9863 64.3447 25.2182 65.4471 25.2182C66.0289 25.2182 66.5188 25.4332 66.9169 25.8634C67.3149 26.2936 67.4987 26.8467 67.4987 27.5226C67.4987 28.1986 67.3149 28.721 66.9169 29.1511C66.5188 29.5813 66.0289 29.7964 65.4471 29.7964Z" fill="white"/>
<path d="M73.9904 23.8662C73.0105 23.8662 72.1531 24.2964 71.6632 25.0338V24.0506H70.3158V33.6064H71.755V30.1958C72.2756 30.8718 73.0411 31.1791 73.9904 31.1791C74.9396 31.1791 75.7358 30.8411 76.3482 30.1344C76.9606 29.4277 77.2668 28.5673 77.2668 27.5226C77.2668 26.4779 76.9606 25.6176 76.3482 24.9109C75.7358 24.2042 74.9396 23.8662 73.9904 23.8662ZM73.776 29.7964C73.2248 29.7964 72.7349 29.612 72.3368 29.2126C71.9388 28.8131 71.755 28.2601 71.755 27.4919C71.755 25.9863 72.6737 25.2182 73.776 25.2182C74.3578 25.2182 74.8478 25.4332 75.2458 25.8634C75.6439 26.2936 75.8276 26.8467 75.8276 27.5226C75.8276 28.1986 75.6439 28.721 75.2458 29.1511C74.8171 29.5813 74.3578 29.7964 73.776 29.7964Z" fill="white"/>
<path d="M85.014 21.4697C84.2179 21.4697 83.5442 21.7155 82.993 22.1764C82.4418 22.6373 82.1662 23.2519 82.1662 24.02C82.1662 25.2183 82.9318 25.9865 84.2485 26.6317L85.2284 27.1234C86.1776 27.5842 86.5451 27.8608 86.5451 28.5368C86.5451 29.3356 85.9326 29.858 84.9834 29.858C84.0647 29.858 83.2992 29.3664 82.6256 28.3524L81.6151 29.1513C82.3193 30.4111 83.5442 31.1792 85.014 31.1792C85.8714 31.1792 86.6063 30.9334 87.1575 30.4418C87.7393 29.9502 88.0149 29.2742 88.0149 28.4753C88.0149 27.2463 87.3106 26.5088 85.8714 25.8021L84.8609 25.3105C83.9423 24.8496 83.6054 24.6038 83.6054 23.9586C83.6054 23.2211 84.2178 22.8217 84.9528 22.8217C85.7183 22.8217 86.3613 23.2211 86.8513 23.9586L87.8618 23.1597C87.3412 22.1457 86.2695 21.4697 85.014 21.4697Z" fill="white"/>
<path d="M92.5468 29.8276C91.6894 29.8276 91.2301 29.5203 91.2301 28.6293V25.3108H93.2205V24.0203H91.2301V22.1768H89.7909V24.0203H88.6885V25.3108H89.7909V28.7215C89.7909 30.3499 90.7095 31.1488 92.2406 31.1488C92.5774 31.1488 92.9755 31.0874 93.4348 30.9952V29.7354C93.0367 29.7969 92.7612 29.8276 92.5468 29.8276Z" fill="white"/>
<path d="M97.5687 23.8662C96.5888 23.8662 95.7314 24.2349 95.0577 24.9109C94.3841 25.6176 94.0472 26.4779 94.0472 27.4919C94.0472 28.5059 94.3841 29.3969 95.0577 30.0729C95.7314 30.7796 96.5582 31.1176 97.5687 31.1483C98.5486 31.1483 99.3753 30.7796 100.08 30.1036C100.784 29.3969 101.121 28.5366 101.121 27.4919C101.121 26.4779 100.753 25.5869 100.08 24.9109C99.406 24.2349 98.5486 23.8662 97.5687 23.8662ZM97.5993 25.2489C98.1811 25.2489 98.671 25.464 99.0691 25.9249C99.4672 26.355 99.6815 26.8774 99.6815 27.5534C99.6815 28.1986 99.4672 28.721 99.0691 29.1819C98.671 29.612 98.1811 29.8271 97.5993 29.8271C96.9869 29.8271 96.4969 29.612 96.1295 29.1819C95.7314 28.7517 95.5477 28.1986 95.5477 27.5534C95.5477 26.9081 95.7314 26.355 96.1295 25.9249C96.4969 25.464 96.9869 25.2489 97.5993 25.2489Z" fill="white"/>
<path d="M105.775 23.9585C104.948 23.9585 104.305 24.2965 103.815 24.9417V24.0199H102.468V30.9948H103.907V27.2769C103.907 26.0479 104.734 25.3412 105.867 25.3412H106.296V24.0199C106.173 23.9892 105.99 23.9585 105.775 23.9585Z" fill="white"/>
<path d="M113.339 27.0622C113.339 26.1404 113.032 25.3723 112.451 24.7577C111.869 24.1432 111.134 23.8359 110.246 23.8359C109.266 23.8359 108.439 24.2047 107.796 24.9114C107.122 25.6181 106.816 26.4784 106.816 27.4924C106.816 28.5371 107.153 29.3974 107.827 30.1041C108.5 30.8108 109.358 31.1488 110.399 31.1488C111.409 31.1488 112.297 30.7801 113.063 30.0119L112.389 28.9979C111.777 29.551 111.134 29.8276 110.43 29.8276C109.266 29.8276 108.439 29.1516 108.255 27.984H113.247C113.277 27.6767 113.339 27.3695 113.339 27.0622ZM110.185 25.1264C111.164 25.1264 111.899 25.8024 111.899 26.8471H108.255C108.47 25.8024 109.235 25.1264 110.185 25.1264Z" fill="white"/>
<path d="M43.9108 22.2996C43.8801 19.6264 46.238 18.3359 46.3298 18.2745C45.0131 16.4616 42.9309 16.2158 42.2266 16.1851C40.5118 16.0007 38.8276 17.1683 37.9396 17.1683C37.0516 17.1683 35.6737 16.2158 34.2345 16.2465C32.3666 16.2772 30.5906 17.2912 29.6413 18.889C27.6509 22.1152 29.1207 26.8778 31.0499 29.4895C31.9991 30.78 33.1015 32.1934 34.5713 32.1627C36.0105 32.1013 36.5311 31.3024 38.2458 31.3024C39.9606 31.3024 40.4506 32.1627 41.951 32.132C43.4821 32.1013 44.4619 30.8415 45.3806 29.551C46.4829 28.0761 46.9116 26.632 46.9423 26.5705C46.881 26.5398 43.9414 25.4951 43.9108 22.2996ZM41.0936 14.4951C41.8591 13.6041 42.3797 12.375 42.2266 11.1152C41.1242 11.146 39.7157 11.8219 38.9195 12.713C38.2152 13.4812 37.5722 14.7717 37.7559 15.97C39.0114 16.0622 40.2975 15.3555 41.0936 14.4951Z" fill="white"/>
</svg>
