<svg width="20" height="20" viewBox="0 0 20 20" fill="none" xmlns="http://www.w3.org/2000/svg">
<path d="M13.6999 3.33325C15.8405 3.33325 17.5836 5.07722 17.5837 7.24146C17.5837 8.03763 17.4725 8.77945 17.276 9.47388L17.1862 9.7688L17.1852 9.77368C16.5806 11.687 15.3372 13.2413 13.9792 14.4084C12.788 15.4322 11.5412 16.1298 10.6393 16.4954L10.2751 16.6311L10.2673 16.634C10.2308 16.6469 10.1336 16.6663 9.99968 16.6663C9.93281 16.6662 9.87518 16.662 9.82976 16.6555L9.73308 16.634L9.72527 16.6311L9.36101 16.4954C8.45915 16.1298 7.21246 15.4323 6.02116 14.4084C4.74794 13.3142 3.57596 11.8798 2.9362 10.1282L2.81511 9.77368L2.81316 9.7688L2.72429 9.47388C2.52785 8.77943 2.41667 8.03766 2.41667 7.24146C2.41674 5.07722 4.15988 3.33325 6.30046 3.33325C7.56117 3.3334 8.6924 3.9464 9.39909 4.89087L9.99968 5.6936L10.6003 4.89087C11.307 3.94621 12.4389 3.33329 13.6999 3.33325Z" fill="#FC4949" stroke="#FC4949" stroke-width="1.5"/>
</svg>
