<svg width="20" height="20" viewBox="0 0 20 20" fill="none" xmlns="http://www.w3.org/2000/svg">
<path d="M16.5263 6.26482C16.2839 6.03472 16.0333 5.79682 15.954 5.6059C15.8669 5.39617 15.8741 5.03817 15.881 4.69199C15.8934 4.07721 15.9073 3.38047 15.4306 2.90467C14.9529 2.428 14.2503 2.43881 13.6309 2.4487C13.2831 2.4541 12.9231 2.4598 12.7128 2.37275C12.5206 2.29319 12.2817 2.04404 12.0507 1.80313C11.6147 1.34852 11.1206 0.833252 10.4166 0.833252C9.71259 0.833252 9.2185 1.34852 8.78252 1.80309C8.55149 2.04404 8.31257 2.29319 8.12038 2.37271C7.91012 2.45976 7.55018 2.4541 7.20231 2.44863C6.58239 2.43921 5.88027 2.42796 5.40269 2.9046C4.92586 3.3804 4.93985 4.07718 4.95218 4.69195C4.9591 5.03817 4.96631 5.39617 4.87921 5.60582C4.79986 5.79678 4.54926 6.03472 4.30692 6.26479C3.85053 6.69813 3.33325 7.18922 3.33325 7.88754C3.33325 8.58585 3.85053 9.07698 4.30692 9.51025C4.54926 9.74035 4.79986 9.97825 4.87917 10.1692C4.96631 10.3789 4.95914 10.7369 4.95218 11.0831C4.93985 11.6979 4.9259 12.3946 5.40265 12.8704C5.70322 13.1704 6.09284 13.2772 6.49478 13.3128V18.6295C6.49478 18.8098 6.58585 18.978 6.73727 19.0775C6.88862 19.1769 7.08024 19.1943 7.24723 19.1238L10.4166 17.785L13.586 19.1238C13.6539 19.1524 13.7259 19.1666 13.7976 19.1666C13.9021 19.1666 14.0061 19.1365 14.0959 19.0775C14.2473 18.978 14.3384 18.8098 14.3384 18.6295V13.313C14.7403 13.2774 15.1299 13.1705 15.4305 12.8706C15.9073 12.3948 15.8933 11.698 15.881 11.0832C15.8741 10.737 15.8669 10.379 15.954 10.1694C16.0333 9.97839 16.2839 9.74045 16.5263 9.51039C16.9826 9.07705 17.4999 8.58596 17.4999 7.88764C17.4999 7.18933 16.9827 6.69816 16.5263 6.26482ZM10.6282 16.707C10.493 16.6499 10.3402 16.6499 10.205 16.707L7.57635 17.8174V13.325C7.79065 13.3292 7.98609 13.3469 8.12038 13.4024C8.31257 13.482 8.55149 13.7311 8.78252 13.9721C9.2185 14.4267 9.71259 14.9419 10.4166 14.9419C11.1206 14.9419 11.6147 14.4267 12.0506 13.9721C12.2817 13.7311 12.5206 13.482 12.7128 13.4025C12.8471 13.3469 13.0425 13.3291 13.2568 13.3249V17.8174L10.6282 16.707ZM15.7789 8.73388C15.4553 9.04107 15.1208 9.35871 14.9542 9.75957C14.781 10.1764 14.7905 10.6483 14.7996 11.1046C14.8077 11.5056 14.8168 11.9602 14.6639 12.1128C14.5104 12.2659 14.0522 12.2589 13.6479 12.2524C13.1892 12.2454 12.7149 12.2379 12.2968 12.4109C11.8944 12.5774 11.5757 12.9098 11.2674 13.2312C10.9813 13.5296 10.657 13.8677 10.4165 13.8677C10.176 13.8677 9.85175 13.5295 9.56561 13.2312C9.25736 12.9098 8.93862 12.5774 8.53624 12.4109C8.202 12.2726 7.83193 12.2495 7.46261 12.2495C7.36992 12.2495 7.27719 12.251 7.18518 12.2524C6.78082 12.2587 6.32263 12.2659 6.16916 12.1128C6.0163 11.9602 6.02542 11.5057 6.03342 11.1046C6.04258 10.6483 6.05206 10.1764 5.87883 9.7595C5.7123 9.35871 5.37774 9.04107 5.05417 8.73384C4.75443 8.44928 4.41471 8.12673 4.41471 7.88761C4.41471 7.64849 4.75443 7.3259 5.05417 7.04134C5.37774 6.73415 5.7123 6.4165 5.87887 6.01564C6.05206 5.59881 6.04258 5.12694 6.03342 4.67057C6.02538 4.26953 6.01626 3.81496 6.1692 3.66238C6.32267 3.50927 6.78107 3.51636 7.18515 3.52277C7.64406 3.52986 8.11818 3.53735 8.53631 3.36429C8.93866 3.19782 9.2574 2.86542 9.56564 2.54398C9.85179 2.2456 10.1761 1.90747 10.4166 1.90747C10.6571 1.90747 10.9814 2.2456 11.2675 2.54394C11.5757 2.86542 11.8945 3.19779 12.2968 3.36425C12.715 3.53731 13.1892 3.52975 13.648 3.52274C14.0523 3.51647 14.5105 3.50931 14.664 3.66238C14.8168 3.81496 14.8077 4.2695 14.7997 4.67054C14.7906 5.12687 14.7811 5.59877 14.9543 6.01564C15.1208 6.41643 15.4554 6.73408 15.779 7.0413C16.0787 7.32586 16.4184 7.64845 16.4184 7.88757C16.4184 8.12669 16.0787 8.44928 15.7789 8.73388Z" fill="#F5207C"/>
<path fill-rule="evenodd" clip-rule="evenodd" d="M7.61537 7.84497C7.61537 9.385 8.87201 10.6379 10.4167 10.6379C11.9613 10.6379 13.218 9.385 13.218 7.84497C13.218 6.30493 11.9613 5.05204 10.4167 5.05204C8.87201 5.05204 7.61537 6.30493 7.61537 7.84497ZM10.0706 7.80615L11.0508 6.83262C11.262 6.62286 11.6044 6.62286 11.8155 6.83262C12.0267 7.04238 12.0267 7.38244 11.8155 7.5922L10.453 8.94554C10.3516 9.0463 10.214 9.10287 10.0706 9.10287C9.92719 9.10287 9.78965 9.04626 9.68823 8.94554L9.01763 8.27949C8.80643 8.06973 8.80643 7.72963 9.01763 7.51991C9.22882 7.31018 9.57125 7.31018 9.7824 7.51991L10.0706 7.80615Z" fill="#F5207C"/>
</svg>
