<svg width="32" height="36" viewBox="0 0 32 36" fill="none" xmlns="http://www.w3.org/2000/svg">
<g clip-path="url(#clip0_286_18040)">
<path d="M6.625 17.3119V11.9998C6.625 6.82225 10.8222 2.625 15.9998 2.625C21.1774 2.625 25.3746 6.82225 25.3746 11.9998V17.3119C25.3746 19.8635 23.3061 21.9321 20.7544 21.9321H11.2452C8.6935 21.9321 6.625 19.8636 6.625 17.3119Z" fill="#333333"/>
<path d="M19.0621 21.9321H23.3906C26.8174 21.9321 29.5954 24.7101 29.5954 28.1369V33.3751H2.40625V28.1369C2.40625 24.7101 5.18419 21.9321 8.611 21.9321H13.0249H19.0621Z" fill="#F9F9F9"/>
<path d="M19.0621 21.9321H23.3906C26.8174 21.9321 29.5954 24.7101 29.5954 28.1369V33.3751H2.40625V28.1369C2.40625 24.7101 5.18419 21.9321 8.611 21.9321H13.0249H19.0621Z" fill="#F86AA7"/>
<path d="M10.8719 11.8303V14.7078C10.8719 17.541 13.1687 19.8378 16.0019 19.8378C18.8351 19.8378 21.1319 17.541 21.1319 14.7078V11.8303H17.8936L15.1853 10.8782L12.7721 11.8303H10.8719Z" fill="#FFD4BE"/>
<path d="M13.4373 19.2815V22.0923C13.4373 23.5089 14.5857 24.6573 16.0023 24.6573C17.4189 24.6573 18.5673 23.5089 18.5673 22.0923V19.2815H13.4373Z" fill="#FFD4BE"/>
<path d="M24.1054 21.3444C25.2625 20.3815 26.0006 18.9314 26.0006 17.3119V11.9998C26.0006 6.48587 21.5147 2 16.0007 2C10.4868 2 6.00094 6.48587 6.00094 11.9998V17.3119C6.00094 18.9314 6.739 20.3815 7.89612 21.3444C4.46494 21.7029 1.78125 24.6122 1.78125 28.1368V33.375C1.78125 33.7201 2.06112 34 2.40625 34H13.1881C13.5332 34 13.8131 33.7201 13.8131 33.375C13.8131 33.0299 13.5332 32.75 13.1881 32.75H3.03119V28.1368C3.03119 25.0601 5.53425 22.5571 8.61094 22.5571H12.8449C13.0706 24.0966 14.3996 25.2824 16.0007 25.2824C17.6019 25.2824 18.9309 24.0965 19.1566 22.5571H23.3906C26.4673 22.5571 28.9703 25.0601 28.9703 28.1368V32.75H18.8134C18.4683 32.75 18.1884 33.0299 18.1884 33.375C18.1884 33.7201 18.4683 34 18.8134 34H29.5953C29.9404 34 30.2203 33.7201 30.2203 33.375V28.1368C30.2203 24.6123 27.5366 21.7029 24.1054 21.3444ZM11.4957 12.4553H12.5752C13.5874 12.4553 14.5383 12.0304 15.2116 11.309C15.9289 12.0172 16.9134 12.4553 17.9986 12.4553H20.5057V14.7078C20.5057 17.1919 18.4847 19.2128 16.0007 19.2128C13.5166 19.2128 11.4957 17.1919 11.4957 14.7078L11.4957 12.4553ZM16.0007 24.0324C14.9311 24.0324 14.0607 23.1621 14.0607 22.0924V20.126C14.6672 20.3438 15.3203 20.4628 16.0007 20.4628C16.6812 20.4628 17.3343 20.3438 17.9407 20.126V22.0924C17.9407 23.1621 17.0704 24.0324 16.0007 24.0324ZM19.1907 21.3071V19.4953C20.736 18.4623 21.7557 16.702 21.7557 14.7078V11.8302C21.7557 11.4851 21.4759 11.2052 21.1307 11.2052H17.9986C16.4991 11.2052 15.2791 9.98525 15.2791 8.48575C15.2791 8.14056 14.9992 7.86075 14.6541 7.86075C14.309 7.86075 14.0291 8.14056 14.0291 8.48575C14.0287 9.10557 14.1743 9.71676 14.4543 10.2697C14.2347 10.5603 13.9507 10.7959 13.6247 10.9583C13.2987 11.1206 12.9395 11.2051 12.5753 11.2052H10.8707C10.5256 11.2052 10.2457 11.4851 10.2457 11.8302V14.7078C10.2457 16.7019 11.2655 18.4623 12.8107 19.4953V21.3071H11.2461C9.04319 21.3071 7.25094 19.5148 7.25094 17.3119V11.9998C7.25094 7.17512 11.1761 3.25 16.0007 3.25C20.8254 3.25 24.7506 7.17512 24.7506 11.9998V17.3119C24.7506 19.5148 22.9583 21.3071 20.7554 21.3071H19.1907Z" fill="black"/>
<path d="M15.9996 32.7503C15.8352 32.7503 15.674 32.8171 15.5577 32.9334C15.4415 33.0497 15.3746 33.2109 15.3746 33.3753C15.3746 33.5397 15.4414 33.7009 15.5577 33.8171C15.674 33.9334 15.8352 34.0003 15.9996 34.0003C16.164 34.0003 16.3252 33.9334 16.4414 33.8171C16.5577 33.7009 16.6246 33.5397 16.6246 33.3753C16.6246 33.2109 16.5577 33.0497 16.4414 32.9334C16.324 32.8166 16.1652 32.7508 15.9996 32.7503ZM15.9996 17.5442C15.5749 17.5442 15.1502 17.3825 14.8268 17.0592C14.5827 16.8151 14.5827 16.4194 14.8268 16.1752C15.0709 15.9312 15.4666 15.9312 15.7107 16.1752C15.7879 16.2524 15.8905 16.2949 15.9996 16.2949C16.1087 16.2949 16.2114 16.2524 16.2885 16.1752C16.5326 15.9312 16.9282 15.9312 17.1724 16.1752C17.4165 16.4193 17.4165 16.815 17.1724 17.0592C16.8491 17.3825 16.4244 17.5442 15.9996 17.5442Z" fill="black"/>
</g>
<defs>
<clipPath id="clip0_286_18040">
<rect width="32" height="32" fill="white" transform="translate(0 2)"/>
</clipPath>
</defs>
</svg>
