<svg width="20" height="20" viewBox="0 0 20 20" fill="none" xmlns="http://www.w3.org/2000/svg">
<path d="M7.08332 15.8334H6.66666C3.33332 15.8334 1.66666 15.0001 1.66666 10.8334V6.66675C1.66666 3.33341 3.33332 1.66675 6.66666 1.66675H13.3333C16.6667 1.66675 18.3333 3.33341 18.3333 6.66675V10.8334C18.3333 14.1667 16.6667 15.8334 13.3333 15.8334H12.9167C12.6583 15.8334 12.4083 15.9584 12.25 16.1667L11 17.8334C10.45 18.5667 9.54999 18.5667 8.99999 17.8334L7.74999 16.1667C7.61666 15.9834 7.30832 15.8334 7.08332 15.8334Z" stroke="#7F7F7F" stroke-width="1.5" stroke-miterlimit="10" stroke-linecap="round" stroke-linejoin="round"/>
<path d="M13.3304 9.16667H13.3379" stroke="#7F7F7F" stroke-width="1.5" stroke-linecap="round" stroke-linejoin="round"/>
<path d="M9.99623 9.16667H10.0037" stroke="#7F7F7F" stroke-width="1.5" stroke-linecap="round" stroke-linejoin="round"/>
<path d="M6.66209 9.16667H6.66957" stroke="#7F7F7F" stroke-width="1.5" stroke-linecap="round" stroke-linejoin="round"/>
</svg>
