<svg width="20" height="20" viewBox="0 0 20 20" fill="none" xmlns="http://www.w3.org/2000/svg">
<path d="M17.5615 7.9375L12.0615 2.4375C11.8115 2.1875 11.4365 2.1875 11.1865 2.4375L9.18652 4.4375C8.87402 4.75 8.99902 5.125 9.18652 5.3125L9.62402 5.75L7.74902 7.625C6.81152 7.4375 4.24902 7 2.87402 8.375C2.62402 8.625 2.62402 9 2.87402 9.25L6.43652 12.8125L2.49902 16.75C2.24902 17 2.24902 17.375 2.49902 17.625C2.74902 17.875 3.18652 17.8125 3.37402 17.625L7.31152 13.6875L10.874 17.25C11.249 17.5625 11.624 17.4375 11.749 17.25C13.124 15.875 12.6865 13.3125 12.499 12.375L14.374 10.5L14.8115 10.9375C15.0615 11.1875 15.4365 11.1875 15.6865 10.9375L17.6865 8.9375C17.8115 8.5625 17.8115 8.1875 17.5615 7.9375ZM15.124 9.5L14.6865 9.0625C14.4365 8.8125 14.0615 8.8125 13.8115 9.0625L11.249 11.6875C11.0615 11.875 10.999 12.0625 11.0615 12.3125C11.249 13 11.5615 14.6875 11.0615 15.8125L4.18652 8.9375C5.24902 8.4375 6.99902 8.75 7.68652 8.9375C7.87402 9 8.12402 8.9375 8.31152 8.75L10.874 6.1875C11.249 5.8125 11.0615 5.5 10.874 5.3125L10.4365 4.875L11.624 3.75L16.249 8.375L15.124 9.5Z" fill="#757575"/>
</svg>
