<svg width="32" height="36" viewBox="0 0 32 36" fill="none" xmlns="http://www.w3.org/2000/svg">
<path d="M16 33.5312C24.5777 33.5312 31.5312 26.5777 31.5312 18C31.5312 9.42233 24.5777 2.46875 16 2.46875C7.42233 2.46875 0.46875 9.42233 0.46875 18C0.46875 26.5777 7.42233 33.5312 16 33.5312Z" fill="#F86AA7"/>
<path d="M22.6647 17.2426L12.6744 11.7933C12.0994 11.4797 11.3984 11.8959 11.3984 12.5508V23.4494C11.3984 24.1043 12.0995 24.5205 12.6744 24.2069L22.6647 18.7576C23.2643 18.4305 23.2643 17.5696 22.6647 17.2426Z" fill="white"/>
<path d="M18.7186 29.4512C11.2275 28.8371 5.16323 22.7728 4.54911 15.2817C4.42786 13.8031 4.51442 12.3638 4.78236 10.9894C5.03442 9.69635 3.25642 9.02567 2.5903 10.1622C1.05242 12.786 0.262797 15.9013 0.51511 19.2161C1.09073 26.7784 7.22198 32.9097 14.7843 33.4853C18.0991 33.7376 21.2144 32.948 23.8382 31.4101C24.9747 30.744 24.304 28.9659 23.011 29.218C21.6365 29.486 20.1972 29.5725 18.7186 29.4512Z" fill="#F74D96"/>
<path d="M13.6754 19.2618V12.3393L12.6744 11.7933C12.0994 11.4797 11.3984 11.8959 11.3984 12.5508V23.4494C11.3984 24.1043 12.0995 24.5205 12.6744 24.2069L22.6647 18.7576C22.9656 18.5935 23.1151 18.2949 23.114 17.9968L15.1538 20.3646C14.4162 20.584 13.6754 20.0314 13.6754 19.2618Z" fill="#E6E6E6"/>
<path d="M27.3137 6.68631C24.2917 3.66431 20.2738 2 16 2C11.7262 2 7.70831 3.66431 4.68625 6.68631C1.66431 9.70831 0 13.7262 0 18C0 22.2738 1.66431 26.2917 4.68625 29.3137C7.70831 32.3357 11.7262 34 16 34C20.2738 34 24.2917 32.3357 27.3137 29.3137C30.3357 26.2917 32 22.2738 32 18C32 13.7262 30.3357 9.70831 27.3137 6.68631ZM26.6508 28.6508C23.8059 31.4958 20.0234 33.0625 16 33.0625C11.9766 33.0625 8.19413 31.4958 5.34919 28.6508C2.50425 25.8059 0.9375 22.0234 0.9375 18C0.9375 13.9766 2.50425 10.1941 5.34919 7.34919C8.19413 4.50425 11.9766 2.9375 16 2.9375C20.0234 2.9375 23.8059 4.50425 26.6508 7.34919C29.4958 10.1941 31.0625 13.9766 31.0625 18C31.0625 22.0234 29.4958 25.8059 26.6508 28.6508Z" fill="black"/>
<path d="M23.3515 17.0832L22.2503 16.4825C22.1963 16.4531 22.137 16.4345 22.0758 16.428C22.0146 16.4214 21.9527 16.427 21.8936 16.4444C21.8346 16.4617 21.7795 16.4906 21.7316 16.5292C21.6837 16.5679 21.6439 16.6156 21.6144 16.6696C21.5849 16.7237 21.5664 16.783 21.5598 16.8442C21.5533 16.9054 21.5588 16.9673 21.5762 17.0264C21.5936 17.0854 21.6224 17.1405 21.661 17.1884C21.6997 17.2363 21.7474 17.2761 21.8015 17.3056L22.9026 17.9062C22.9485 17.9312 22.9581 17.9709 22.9581 17.9997C22.9581 18.0286 22.9485 18.0682 22.9026 18.0932L12.024 24.027C11.98 24.0509 11.9425 24.0392 11.9186 24.0251C11.8949 24.0109 11.8665 23.9836 11.8665 23.9335V12.0659C11.8665 12.0158 11.8949 11.9885 11.9186 11.9744C11.9425 11.9602 11.9801 11.9485 12.024 11.9724L19.8005 16.2142C19.8546 16.2437 19.9139 16.2622 19.9751 16.2688C20.0363 16.2753 20.0982 16.2697 20.1572 16.2524C20.2163 16.235 20.2713 16.2062 20.3192 16.1675C20.3672 16.1289 20.407 16.0812 20.4365 16.0271C20.4659 15.9731 20.4845 15.9137 20.491 15.8525C20.4976 15.7913 20.492 15.7294 20.4746 15.6704C20.4573 15.6113 20.4284 15.5563 20.3898 15.5083C20.3511 15.4604 20.3034 15.4206 20.2494 15.3911L12.4729 11.1494C12.1461 10.9711 11.76 10.9782 11.4401 11.1682C11.12 11.3582 10.929 11.6937 10.929 12.0659V23.9334C10.929 24.3056 11.1201 24.6412 11.4401 24.8312C11.6011 24.9275 11.7851 24.9785 11.9726 24.9788C12.1438 24.9788 12.3153 24.9359 12.4729 24.8499L23.3515 18.9162C23.6871 18.7331 23.8956 18.3819 23.8956 17.9997C23.8956 17.6174 23.6871 17.2662 23.3515 17.0832ZM18.7746 5.54055C19.1489 5.6236 19.5193 5.72355 19.8846 5.84011C19.9308 5.85487 19.9789 5.8624 20.0273 5.86242C20.1267 5.86235 20.2235 5.83071 20.3038 5.77206C20.384 5.71341 20.4435 5.63079 20.4738 5.53611C20.4925 5.47747 20.4995 5.41571 20.4943 5.35436C20.4892 5.29302 20.472 5.23329 20.4438 5.17858C20.4156 5.12388 20.3768 5.07527 20.3298 5.03553C20.2828 4.99579 20.2284 4.9657 20.1698 4.94698C19.7774 4.82184 19.3796 4.71448 18.9775 4.62523C18.7248 4.56917 18.4745 4.72867 18.4185 4.98142C18.3625 5.23417 18.5218 5.48455 18.7746 5.54055ZM11.006 29.7474C8.16041 28.5359 5.85057 26.3339 4.50458 23.5494C4.44919 23.4396 4.35287 23.356 4.23638 23.3165C4.11989 23.2771 3.99256 23.285 3.88185 23.3385C3.77113 23.3921 3.6859 23.487 3.64452 23.6028C3.60314 23.7186 3.60893 23.8461 3.66064 23.9577C5.10702 26.9478 7.58521 29.3103 10.6388 30.61C10.6967 30.6348 10.7591 30.6475 10.8221 30.6476C10.9141 30.6476 11.0041 30.6205 11.0808 30.5698C11.1575 30.5191 11.2176 30.4469 11.2536 30.3622C11.3023 30.2479 11.3036 30.1188 11.2571 30.0035C11.2107 29.8882 11.1203 29.7961 11.006 29.7474ZM28.3391 12.0427C27.1025 9.48586 25.0473 7.32786 22.5518 5.9663C22.4977 5.9368 22.4384 5.91824 22.3772 5.91168C22.316 5.90511 22.2541 5.91066 22.195 5.92802C22.136 5.94538 22.0809 5.97421 22.033 6.01285C21.9851 6.05149 21.9452 6.09919 21.9158 6.15323C21.8863 6.20727 21.8677 6.26659 21.8612 6.3278C21.8546 6.38901 21.8602 6.45091 21.8775 6.50996C21.8949 6.56902 21.9237 6.62408 21.9624 6.672C22.001 6.71992 22.0487 6.75975 22.1028 6.78923C24.428 8.05786 26.343 10.0685 27.4951 12.4509C27.5218 12.5064 27.5592 12.5562 27.6052 12.5972C27.6511 12.6383 27.7047 12.6699 27.7629 12.6902C27.8211 12.7106 27.8828 12.7192 27.9443 12.7157C28.0059 12.7122 28.0661 12.6966 28.1216 12.6697C28.1771 12.6429 28.2267 12.6054 28.2677 12.5593C28.3087 12.5133 28.3402 12.4596 28.3604 12.4013C28.3806 12.3431 28.3891 12.2815 28.3855 12.2199C28.3818 12.1584 28.366 12.0982 28.3391 12.0427Z" fill="black"/>
</svg>
