<svg width="25" height="25" viewBox="0 0 25 25" fill="none" xmlns="http://www.w3.org/2000/svg">
<path d="M2.7663 2.24609L2.7663 22.2461" stroke="#F5207C" stroke-width="1.5" stroke-miterlimit="10" stroke-linecap="round" stroke-linejoin="round"/>
<path d="M20.7663 9.99609L2.7663 9.99609L2.7663 14.4961L20.7663 14.4961C21.8663 14.4961 22.7663 14.0461 22.7663 12.6961L22.7663 11.7961C22.7663 10.4461 21.8663 9.99609 20.7663 9.99609Z" stroke="#F5207C" stroke-width="1.5" stroke-linecap="round" stroke-linejoin="round"/>
<path d="M14.7663 3.24609L2.7663 3.24609L2.7663 7.24609L14.7663 7.24609C15.8663 7.24609 16.7663 6.84609 16.7663 5.64609L16.7663 4.84609C16.7663 3.64609 15.8663 3.24609 14.7663 3.24609Z" stroke="#F5207C" stroke-width="1.5" stroke-linecap="round" stroke-linejoin="round"/>
<path d="M9.7663 17.2461L2.7663 17.2461L2.7663 21.2461L9.7663 21.2461C10.8663 21.2461 11.7663 20.8461 11.7663 19.6461L11.7663 18.8461C11.7663 17.6461 10.8663 17.2461 9.7663 17.2461Z" stroke="#F5207C" stroke-width="1.5" stroke-linecap="round" stroke-linejoin="round"/>
</svg>
