<svg width="20" height="20" viewBox="0 0 20 20" fill="none" xmlns="http://www.w3.org/2000/svg">
<path d="M1.25 18.1249C1.36608 18.1249 1.47988 18.0926 1.57863 18.0316C1.67738 17.9706 1.75718 17.8833 1.80906 17.7794C2.96625 15.4651 4.06187 13.2744 10 13.1322V17.4999C10 17.6214 10.0355 17.7403 10.102 17.842C10.1685 17.9437 10.2632 18.0238 10.3745 18.0724C10.4859 18.1211 10.609 18.1363 10.7288 18.1161C10.8486 18.096 10.96 18.0413 11.0492 17.9588L19.1742 10.4588C19.3023 10.3411 19.375 10.1744 19.375 9.9999C19.375 9.82536 19.3023 9.65865 19.1742 9.54083L11.0492 2.04083C10.9599 1.95846 10.8485 1.90386 10.7286 1.88369C10.6088 1.86352 10.4856 1.87865 10.3742 1.92724C10.263 1.97602 10.1683 2.05616 10.1019 2.15786C10.0354 2.25955 10 2.37841 10 2.4999V6.88224C1.34344 7.09708 0.625 11.8205 0.625 17.4999C0.625134 17.6407 0.672733 17.7774 0.760113 17.8878C0.847492 17.9982 0.969547 18.076 1.10656 18.1085C1.15422 18.1194 1.20234 18.1249 1.25 18.1249ZM17.8284 9.9999L11.25 16.0722V12.4999C11.25 12.1544 10.9705 11.8749 10.625 11.8749C5.4425 11.8749 3.23609 13.3215 1.94156 15.0604C2.23391 10.7952 3.72062 8.1249 10.625 8.1249C10.9705 8.1249 11.25 7.84536 11.25 7.4999V3.92755L17.8284 9.9999Z" fill="#7F7F7F"/>
</svg>
