<svg width="16" height="16" viewBox="0 0 16 16" fill="none" xmlns="http://www.w3.org/2000/svg">
<path d="M1.33337 1.3335H2.49338C3.21338 1.3335 3.78004 1.9535 3.72004 2.66683L3.16671 9.30682C3.07337 10.3935 3.93337 11.3268 5.0267 11.3268H12.1267C13.0867 11.3268 13.9267 10.5402 14 9.58683L14.36 4.58683C14.44 3.48017 13.6 2.58016 12.4867 2.58016H3.88005" stroke="#F5207C" stroke-width="1.5" stroke-miterlimit="10" stroke-linecap="round" stroke-linejoin="round"/>
<path d="M10.8333 14.6667C11.2936 14.6667 11.6667 14.2936 11.6667 13.8333C11.6667 13.3731 11.2936 13 10.8333 13C10.3731 13 10 13.3731 10 13.8333C10 14.2936 10.3731 14.6667 10.8333 14.6667Z" stroke="#F5207C" stroke-width="1.5" stroke-miterlimit="10" stroke-linecap="round" stroke-linejoin="round"/>
<path d="M5.49996 14.6667C5.9602 14.6667 6.33329 14.2936 6.33329 13.8333C6.33329 13.3731 5.9602 13 5.49996 13C5.03972 13 4.66663 13.3731 4.66663 13.8333C4.66663 14.2936 5.03972 14.6667 5.49996 14.6667Z" stroke="#F5207C" stroke-width="1.5" stroke-miterlimit="10" stroke-linecap="round" stroke-linejoin="round"/>
<path d="M6 5.3335H14" stroke="#F5207C" stroke-width="1.5" stroke-miterlimit="10" stroke-linecap="round" stroke-linejoin="round"/>
</svg>
