<svg width="33" height="32" viewBox="0 0 33 32" fill="none" xmlns="http://www.w3.org/2000/svg">
<path d="M27.1086 10.0238C26.7209 9.65561 26.3199 9.27496 26.193 8.96948C26.0536 8.63393 26.0651 8.06112 26.0762 7.50723C26.0959 6.52359 26.1182 5.40881 25.3554 4.64752C24.5912 3.88485 23.4671 3.90215 22.476 3.91796C21.9195 3.92662 21.3435 3.93572 21.0071 3.79645C20.6996 3.66915 20.3173 3.27051 19.9477 2.88505C19.25 2.15768 18.4595 1.33325 17.3331 1.33325C16.2067 1.33325 15.4161 2.15768 14.7186 2.885C14.3489 3.27051 13.9667 3.66915 13.6592 3.79639C13.3228 3.93567 12.7468 3.92661 12.1902 3.91785C11.1984 3.90278 10.075 3.88479 9.31085 4.6474C8.54793 5.40869 8.57031 6.52353 8.59004 7.50717C8.60111 8.06112 8.61265 8.63392 8.47329 8.96937C8.34633 9.2749 7.94537 9.65561 7.55762 10.0237C6.8274 10.717 5.99976 11.5028 5.99976 12.6201C5.99976 13.7374 6.8274 14.5232 7.55762 15.2164C7.94537 15.5846 8.34633 15.9652 8.47323 16.2707C8.61265 16.6063 8.60117 17.1791 8.59004 17.733C8.57031 18.7166 8.54799 19.8314 9.3108 20.5928C9.7917 21.0727 10.4151 21.2436 11.0582 21.3006V29.8072C11.0582 30.0957 11.2039 30.3648 11.4462 30.524C11.6883 30.6831 11.9949 30.7109 12.2621 30.598L17.3331 28.456L22.4041 30.598C22.5128 30.6439 22.6279 30.6666 22.7427 30.6666C22.9099 30.6666 23.0763 30.6184 23.22 30.524C23.4622 30.3649 23.608 30.0957 23.608 29.8072V21.3008C24.2511 21.2439 24.8744 21.0729 25.3553 20.593C26.1182 19.8317 26.0959 18.7168 26.0761 17.7332C26.0651 17.1793 26.0535 16.6065 26.1929 16.271C26.3199 15.9655 26.7208 15.5848 27.1086 15.2167C27.8388 14.5233 28.6664 13.7376 28.6664 12.6203C28.6664 11.503 27.8388 10.7171 27.1086 10.0238ZM17.6717 26.7313C17.4554 26.6399 17.2108 26.6399 16.9945 26.7313L12.7887 28.5079V21.3201C13.1316 21.3268 13.4443 21.3551 13.6592 21.4439C13.9667 21.5712 14.3489 21.9699 14.7186 22.3553C15.4161 23.0827 16.2067 23.9071 17.3331 23.9071C18.4595 23.9071 19.25 23.0827 19.9475 22.3554C20.3172 21.9699 20.6995 21.5712 21.007 21.444C21.2219 21.355 21.5346 21.3267 21.8775 21.32V28.5078L17.6717 26.7313ZM25.9128 13.9743C25.3951 14.4658 24.8598 14.974 24.5933 15.6154C24.3162 16.2823 24.3313 17.0373 24.346 17.7675C24.3588 18.4091 24.3734 19.1364 24.1287 19.3805C23.8832 19.6255 23.1501 19.6142 22.5032 19.604C21.7693 19.5926 21.0104 19.5807 20.3414 19.8575C19.6976 20.1239 19.1876 20.6557 18.6944 21.17C18.2366 21.6474 17.7178 22.1884 17.333 22.1884C16.9482 22.1884 16.4294 21.6473 15.9715 21.17C15.4783 20.6557 14.9683 20.1239 14.3245 19.8574C13.7898 19.6362 13.1976 19.5993 12.6067 19.5993C12.4584 19.5993 12.3101 19.6017 12.1628 19.604C11.5159 19.614 10.7828 19.6256 10.5372 19.3805C10.2926 19.1363 10.3072 18.4091 10.32 17.7675C10.3347 17.0373 10.3499 16.2822 10.0727 15.6153C9.80624 14.974 9.27094 14.4658 8.75323 13.9742C8.27364 13.5189 7.73009 13.0028 7.73009 12.6202C7.73009 12.2376 8.27364 11.7215 8.75323 11.2662C9.27094 10.7747 9.80624 10.2664 10.0727 9.62507C10.3499 8.95814 10.3347 8.20315 10.32 7.47297C10.3072 6.8313 10.2926 6.10398 10.5373 5.85986C10.7828 5.61489 11.5163 5.62623 12.1628 5.63648C12.897 5.64783 13.6556 5.6598 14.3247 5.38291C14.9684 5.11656 15.4784 4.58472 15.9716 4.07042C16.4294 3.59301 16.9483 3.052 17.3331 3.052C17.7179 3.052 18.2368 3.59301 18.6945 4.07036C19.1877 4.58472 19.6977 5.11651 20.3415 5.38285C21.0105 5.65974 21.7692 5.64766 22.5033 5.63643C23.1503 5.6264 23.8834 5.61494 24.1289 5.85986C24.3735 6.10398 24.3589 6.83124 24.3461 7.47291C24.3314 8.20303 24.3163 8.95808 24.5934 9.62507C24.8599 10.2663 25.3952 10.7746 25.9129 11.2661C26.3925 11.7214 26.936 12.2376 26.936 12.6202C26.936 13.0028 26.3924 13.5189 25.9128 13.9743Z" fill="#F5207C"/>
<path fill-rule="evenodd" clip-rule="evenodd" d="M12.8512 12.552C12.8512 15.0161 14.8618 17.0207 17.3332 17.0207C19.8047 17.0207 21.8153 15.0161 21.8153 12.552C21.8153 10.0879 19.8047 8.08331 17.3332 8.08331C14.8618 8.08331 12.8512 10.0879 12.8512 12.552ZM16.7795 12.4899L18.3478 10.9322C18.6857 10.5966 19.2336 10.5966 19.5714 10.9322C19.9093 11.2679 19.9093 11.812 19.5714 12.1476L17.3913 14.3129C17.2291 14.4741 17.009 14.5646 16.7795 14.5646C16.5501 14.5646 16.33 14.4741 16.1677 14.3129L15.0948 13.2472C14.7568 12.9116 14.7568 12.3675 15.0948 12.0319C15.4327 11.6963 15.9805 11.6963 16.3184 12.0319L16.7795 12.4899Z" fill="#F5207C"/>
</svg>
