<svg width="16" height="17" viewBox="0 0 16 17" fill="none" xmlns="http://www.w3.org/2000/svg">
<path d="M5.67908 15.1626C5.63036 15.1612 5.58224 15.1578 5.53455 15.1558C5.68605 15.1616 5.8415 15.1665 6.00037 15.1665L5.67908 15.1626ZM14.6625 10.8218C14.6611 10.8702 14.6576 10.918 14.6556 10.9653C14.6615 10.814 14.6664 10.6591 14.6664 10.5005L14.6625 10.8218ZM1.33337 6.50049L1.33826 6.1792C1.33977 6.12518 1.34183 6.0718 1.34412 6.01904C1.33783 6.17549 1.33337 6.33617 1.33337 6.50049ZM6.00037 1.8335C5.83605 1.8335 5.67537 1.83795 5.51892 1.84424C5.57168 1.84196 5.62506 1.83989 5.67908 1.83838L6.00037 1.8335ZM10.3217 1.83838C10.3753 1.83988 10.4284 1.84197 10.4808 1.84424C10.3246 1.83796 10.1645 1.8335 10.0004 1.8335L10.3217 1.83838Z" fill="#F5207C" stroke="#F5207C"/>
<mask id="path-2-inside-1_592_2275" fill="white">
<path d="M14.3201 5.74023H1.68005C1.40672 5.74023 1.18005 5.51357 1.18005 5.24023C1.18005 4.9669 1.40005 4.74023 1.68005 4.74023H14.3201C14.5934 4.74023 14.8201 4.9669 14.8201 5.24023C14.8201 5.51357 14.6001 5.74023 14.3201 5.74023Z"/>
</mask>
<path d="M14.3201 5.74023H1.68005C1.40672 5.74023 1.18005 5.51357 1.18005 5.24023C1.18005 4.9669 1.40005 4.74023 1.68005 4.74023H14.3201C14.5934 4.74023 14.8201 4.9669 14.8201 5.24023C14.8201 5.51357 14.6001 5.74023 14.3201 5.74023Z" fill="#F5207C"/>
<path d="M14.3201 5.74023V4.74023H1.68005V5.74023V6.74023H14.3201V5.74023ZM1.68005 5.74023V4.74023C1.95901 4.74023 2.18005 4.96128 2.18005 5.24023H1.18005H0.180054C0.180054 6.06585 0.854436 6.74023 1.68005 6.74023V5.74023ZM1.18005 5.24023H2.18005C2.18005 5.51048 1.96101 5.74023 1.68005 5.74023V4.74023V3.74023C0.8391 3.74023 0.180054 4.42333 0.180054 5.24023H1.18005ZM1.68005 4.74023V5.74023H14.3201V4.74023V3.74023H1.68005V4.74023ZM14.3201 4.74023V5.74023C14.0411 5.74023 13.8201 5.51919 13.8201 5.24023H14.8201H15.8201C15.8201 4.41462 15.1457 3.74023 14.3201 3.74023V4.74023ZM14.8201 5.24023H13.8201C13.8201 4.96999 14.0391 4.74023 14.3201 4.74023V5.74023V6.74023C15.161 6.74023 15.8201 6.05714 15.8201 5.24023H14.8201Z" fill="#F5207C" mask="url(#path-2-inside-1_592_2275)"/>
<path d="M5.68005 5.64674C5.40672 5.64674 5.18005 5.42007 5.18005 5.14674V1.90674C5.18005 1.6334 5.40672 1.40674 5.68005 1.40674C5.95339 1.40674 6.18005 1.6334 6.18005 1.90674V5.14674C6.18005 5.42007 5.95339 5.64674 5.68005 5.64674Z" fill="#F5207C"/>
<path d="M10.3199 5.34674C10.0466 5.34674 9.81995 5.12007 9.81995 4.84674V1.90674C9.81995 1.6334 10.0466 1.40674 10.3199 1.40674C10.5933 1.40674 10.8199 1.6334 10.8199 1.90674V4.84674C10.8199 5.12674 10.5999 5.34674 10.3199 5.34674Z" fill="#F5207C"/>
<path d="M7.39333 12.5798C7.15333 12.5798 6.92667 12.5198 6.72 12.4065C6.26667 12.1398 6 11.6065 6 10.9332V9.33318C6 8.65984 6.26667 8.11984 6.72667 7.85318C7.18667 7.58651 7.78667 7.62651 8.36667 7.96651L9.75333 8.76651C10.3333 9.09984 10.6733 9.59984 10.6733 10.1332C10.6733 10.6665 10.3333 11.1665 9.74667 11.4998L8.36 12.2998C8.04 12.4865 7.70667 12.5798 7.39333 12.5798ZM7.4 8.67984C7.33333 8.67984 7.27333 8.69318 7.22667 8.71984C7.08667 8.79984 7 9.02651 7 9.33318V10.9332C7 11.2332 7.08667 11.4598 7.22667 11.5465C7.36667 11.6265 7.60667 11.5865 7.86667 11.4332L9.25333 10.6332C9.51333 10.4798 9.67333 10.2932 9.67333 10.1332C9.67333 9.97318 9.52 9.78651 9.25333 9.63318L7.86667 8.83318C7.69333 8.73318 7.52667 8.67984 7.4 8.67984Z" fill="#F5207C"/>
</svg>
