<svg width="203" height="182" viewBox="0 0 203 182" fill="none" xmlns="http://www.w3.org/2000/svg">
<path fill-rule="evenodd" clip-rule="evenodd" d="M146.511 0.514463C136.806 2.68839 127.724 7.5669 121.131 14.1472C116.036 19.2329 110.374 27.7656 108.957 32.4909C107.74 36.5523 107.769 36.5487 96.1864 34.1666C83.4785 31.5521 68.395 30.2557 58.6431 30.9386C39.0446 32.3116 17.8067 37.6658 4.86993 44.4957C-1.79358 48.0138 -1.74312 48.0048 10.7476 43.466C38.22 33.4828 68.9817 31.6657 95.9206 38.4343L105.711 40.8938L105.854 45.7191C105.974 49.785 106.392 50.8841 108.505 52.7013C111.841 55.5698 116.212 55.5491 119.343 52.6491C123.46 48.8346 122.073 44.2254 115.645 40.3605C113.786 39.2433 112.138 38.2379 111.982 38.1271C111.826 38.0163 113.197 34.9513 115.028 31.3161C124.152 13.2049 143.379 2.96408 162.373 6.10019C195.537 11.5751 200.812 43.947 175.237 85.039C163.318 104.187 142.312 128.992 125.705 143.527L118.416 149.905L105.529 151.97C82.6359 155.638 64.5442 161.639 60.961 166.753C58.8414 169.779 59.1703 174.016 61.7117 176.402C69.9262 184.117 93.5468 177.375 114.892 161.226C120.537 156.953 120.805 156.86 131.317 155.444C156.601 152.04 203.652 149.542 255.106 148.872C345.823 147.692 452.674 154.996 532.677 167.846C548.14 170.328 574.131 175.35 589.158 178.758C608.876 183.23 602.811 180.632 579.54 174.64C521.069 159.583 454.402 150.693 352.436 144.356C333.369 143.171 313.311 142.802 265.47 142.757C202.07 142.697 185.832 143.243 148.938 146.677C139.672 147.54 131.986 148.176 131.858 148.091C131.73 148.006 135.662 143.801 140.597 138.746C158.235 120.676 174.043 100.393 183.501 83.6948C193.869 65.3872 197.997 51.0977 197.217 36.2018C196.83 28.8106 196.373 26.9628 193.483 21.1186C186.595 7.18489 173.242 -0.248614 155.559 0.0063466C151.574 0.0640056 147.502 0.292836 146.511 0.514463ZM110.488 44.0056C110.196 44.4786 110.212 45.8831 110.525 47.1264C111.255 50.0337 114.232 51.0346 116.196 49.0337C117.567 47.6354 117.478 47.3715 114.968 45.3417C111.995 42.9371 111.281 42.7236 110.488 44.0056ZM88.8335 162.465C76.9078 165.495 66.7539 169.388 66.7539 170.931C66.7539 173.195 72.29 173.439 79.8575 171.509C85.3125 170.117 99.9652 163.437 103.253 160.844C105.023 159.448 105.015 159.423 102.802 159.455C101.563 159.473 95.2771 160.827 88.8335 162.465Z" fill="#F5207C" fill-opacity="0.1"/>
</svg>
