<svg width="20" height="21" viewBox="0 0 20 21" fill="none" xmlns="http://www.w3.org/2000/svg">
<path d="M16.7201 8.7773C16.3879 8.44501 16.2012 7.99437 16.2012 7.52448V6.48657C16.2012 6.2539 16.1553 6.02351 16.0663 5.80855C15.9773 5.59358 15.8468 5.39826 15.6823 5.23374C15.5177 5.06921 15.3224 4.9387 15.1075 4.84966C14.8925 4.76062 14.6621 4.7148 14.4295 4.7148H13.3915C12.9216 4.71476 12.471 4.52812 12.1387 4.19592L11.2529 3.31C11.0884 3.14546 10.8931 3.01494 10.6781 2.9259C10.4631 2.83685 10.2327 2.79102 10.0001 2.79102C9.76739 2.79102 9.537 2.83685 9.32204 2.9259C9.10708 3.01494 8.91177 3.14546 8.74725 3.31L7.86131 4.19592C7.52898 4.52814 7.07832 4.71478 6.60841 4.7148H5.5705C5.33783 4.7148 5.10744 4.76062 4.89249 4.84966C4.67753 4.9387 4.48221 5.06921 4.3177 5.23374C4.15318 5.39827 4.02268 5.59359 3.93365 5.80855C3.84462 6.02351 3.7988 6.2539 3.79881 6.48657V7.52448C3.79877 7.99437 3.6121 8.44501 3.27985 8.7773L2.39393 9.66315C2.22939 9.82767 2.09887 10.023 2.00982 10.238C1.92077 10.4529 1.87494 10.6833 1.87494 10.916C1.87494 11.1487 1.92077 11.3791 2.00982 11.5941C2.09887 11.809 2.22939 12.0044 2.39393 12.1689L3.27985 13.0547C3.6121 13.387 3.79877 13.8377 3.79881 14.3076V15.3455C3.7988 15.5782 3.84462 15.8086 3.93365 16.0235C4.02268 16.2385 4.15318 16.4338 4.3177 16.5983C4.48222 16.7628 4.67754 16.8933 4.89249 16.9824C5.10745 17.0714 5.33784 17.1172 5.5705 17.1172H6.60841C7.07833 17.1173 7.52899 17.3039 7.86131 17.6362L8.74724 18.5221C9.07951 18.8544 9.53016 19.041 10 19.041C10.4699 19.041 10.9206 18.8544 11.2529 18.5221L12.1386 17.6362C12.471 17.3039 12.9216 17.1173 13.3915 17.1172H14.4294C14.6621 17.1172 14.8925 17.0714 15.1074 16.9824C15.3224 16.8933 15.5177 16.7628 15.6822 16.5983C15.8468 16.4338 15.9773 16.2385 16.0663 16.0235C16.1553 15.8086 16.2011 15.5782 16.2011 15.3455V14.3076C16.2012 13.8377 16.3878 13.387 16.7201 13.0547L17.606 12.1689C17.7705 12.0044 17.9011 11.809 17.9901 11.5941C18.0792 11.3791 18.125 11.1487 18.125 10.916C18.125 10.6833 18.0792 10.4529 17.9901 10.238C17.9011 10.023 17.7705 9.82767 17.606 9.66315L16.7201 8.7773ZM12.9419 9.69105L9.60842 13.0248C9.5504 13.0828 9.48151 13.1289 9.40569 13.1603C9.32987 13.1917 9.2486 13.2079 9.16653 13.2079C9.08445 13.2079 9.00318 13.1917 8.92736 13.1603C8.85154 13.1289 8.78265 13.0828 8.72463 13.0248L7.0581 11.3579C6.94266 11.2404 6.87831 11.082 6.87906 10.9172C6.8798 10.7525 6.94558 10.5947 7.06209 10.4782C7.17859 10.3617 7.33639 10.2959 7.50115 10.2951C7.66591 10.2944 7.8243 10.3587 7.94185 10.4742L9.16652 11.6992L12.0581 8.8073C12.1757 8.69185 12.334 8.6275 12.4988 8.62825C12.6636 8.629 12.8214 8.69478 12.9379 8.81128C13.0544 8.92779 13.1202 9.08558 13.1209 9.25034C13.1216 9.4151 13.0573 9.57349 12.9419 9.69105Z" fill="#F5207C"/>
</svg>
