<svg width="16" height="16" viewBox="0 0 16 16" fill="none" xmlns="http://www.w3.org/2000/svg">
<path d="M13.3761 6.28903C13.1103 6.0232 12.961 5.66268 12.961 5.28677V4.45645C12.961 4.27031 12.9243 4.08599 12.8531 3.91402C12.7819 3.74206 12.6775 3.5858 12.5459 3.45418C12.4142 3.32256 12.258 3.21815 12.086 3.14692C11.9141 3.07569 11.7297 3.03902 11.5436 3.03903H10.7133C10.3374 3.03899 9.97684 2.88968 9.71097 2.62393L9.00235 1.91519C8.87074 1.78356 8.71449 1.67914 8.54252 1.6079C8.37056 1.53667 8.18624 1.5 8.0001 1.5C7.81396 1.5 7.62965 1.53667 7.45768 1.6079C7.28571 1.67914 7.12946 1.78356 6.99785 1.91519L6.2891 2.62393C6.02324 2.8897 5.6627 3.03901 5.28678 3.03903H4.45645C4.27032 3.03902 4.086 3.07569 3.91404 3.14692C3.74207 3.21815 3.58582 3.32256 3.45421 3.45418C3.32259 3.5858 3.21819 3.74206 3.14697 3.91403C3.07574 4.08599 3.03909 4.27031 3.0391 4.45645V5.28677C3.03906 5.66269 2.88973 6.0232 2.62393 6.28903L1.91519 6.99771C1.78356 7.12932 1.67914 7.28558 1.60791 7.45755C1.53667 7.62953 1.5 7.81385 1.5 8C1.5 8.18614 1.53667 8.37046 1.60791 8.54244C1.67914 8.71441 1.78356 8.87067 1.91519 9.00229L2.62393 9.71097C2.88973 9.97682 3.03906 10.3373 3.0391 10.7133V11.5436C3.03909 11.7297 3.07574 11.914 3.14697 12.086C3.21819 12.258 3.3226 12.4142 3.45421 12.5458C3.58583 12.6775 3.74208 12.7819 3.91404 12.8531C4.08601 12.9243 4.27032 12.961 4.45645 12.961H5.28678C5.66271 12.961 6.02324 13.1103 6.2891 13.3761L6.99784 14.0849C7.26365 14.3507 7.62417 14.5 8.00009 14.5C8.376 14.5 8.73652 14.3507 9.00234 14.0849L9.71096 13.3761C9.97682 13.1103 10.3373 12.961 10.7133 12.961H11.5436C11.7297 12.961 11.914 12.9243 12.086 12.8531C12.258 12.7819 12.4142 12.6775 12.5458 12.5458C12.6775 12.4142 12.7819 12.258 12.8531 12.086C12.9243 11.914 12.961 11.7297 12.961 11.5436V10.7133C12.961 10.3373 13.1103 9.97682 13.3761 9.71097L14.0849 9.00229C14.2165 8.87067 14.3209 8.71441 14.3921 8.54244C14.4634 8.37046 14.5001 8.18614 14.5001 8C14.5001 7.81385 14.4634 7.62953 14.3921 7.45755C14.3209 7.28558 14.2165 7.12932 14.0849 6.99771L13.3761 6.28903ZM10.3535 7.02003L7.68679 9.68703C7.64037 9.73347 7.58526 9.7703 7.5246 9.79544C7.46394 9.82057 7.39893 9.83351 7.33327 9.83351C7.26761 9.83351 7.2026 9.82057 7.14194 9.79544C7.08128 9.7703 7.02617 9.73347 6.97975 9.68703L5.64653 8.35353C5.55418 8.25948 5.5027 8.13277 5.50329 8.00096C5.50389 7.86915 5.55652 7.74292 5.64972 7.64971C5.74292 7.55651 5.86916 7.50388 6.00097 7.50329C6.13278 7.50269 6.25949 7.55417 6.35353 7.64653L7.33327 8.62653L9.64653 6.31303C9.74058 6.22067 9.86729 6.16919 9.9991 6.16979C10.1309 6.17038 10.2571 6.22301 10.3503 6.31621C10.4435 6.40942 10.4962 6.53565 10.4968 6.66746C10.4974 6.79927 10.4459 6.92598 10.3535 7.02003Z" fill="#F5207C"/>
</svg>
