<svg width="20" height="20" viewBox="0 0 20 20" fill="none" xmlns="http://www.w3.org/2000/svg">
<path d="M8.33334 15.8333C8.33334 16.75 9.08334 17.5 10 17.5C10.9167 17.5 11.6667 16.75 11.6667 15.8333C11.6667 14.9167 10.9167 14.1667 10 14.1667C9.08334 14.1667 8.33334 14.9167 8.33334 15.8333Z" stroke="black" stroke-width="1.5"/>
<path d="M8.33334 4.16659C8.33334 5.08325 9.08334 5.83325 10 5.83325C10.9167 5.83325 11.6667 5.08325 11.6667 4.16659C11.6667 3.24992 10.9167 2.49992 10 2.49992C9.08334 2.49992 8.33334 3.24992 8.33334 4.16659Z" stroke="black" stroke-width="1.5"/>
<path d="M8.33334 10.0001C8.33334 10.9167 9.08334 11.6667 10 11.6667C10.9167 11.6667 11.6667 10.9167 11.6667 10.0001C11.6667 9.08341 10.9167 8.33341 10 8.33341C9.08334 8.33341 8.33334 9.08341 8.33334 10.0001Z" stroke="black" stroke-width="1.5"/>
</svg>
