<svg width="33" height="32" viewBox="0 0 33 32" fill="none" xmlns="http://www.w3.org/2000/svg">
<path d="M20.3333 30.3334H12.3333C5.09333 30.3334 2 27.2401 2 20.0001V12.0001C2 4.76008 5.09333 1.66675 12.3333 1.66675H20.3333C27.5733 1.66675 30.6667 4.76008 30.6667 12.0001V20.0001C30.6667 27.2401 27.5733 30.3334 20.3333 30.3334ZM12.3333 3.66675C6.18667 3.66675 4 5.85342 4 12.0001V20.0001C4 26.1468 6.18667 28.3334 12.3333 28.3334H20.3333C26.48 28.3334 28.6667 26.1468 28.6667 20.0001V12.0001C28.6667 5.85342 26.48 3.66675 20.3333 3.66675H12.3333Z" fill="#F5207C"/>
<path d="M28.9734 10.48H3.69336C3.14669 10.48 2.69336 10.0266 2.69336 9.47998C2.69336 8.93331 3.13336 8.47998 3.69336 8.47998H28.9734C29.52 8.47998 29.9734 8.93331 29.9734 9.47998C29.9734 10.0266 29.5334 10.48 28.9734 10.48Z" fill="#F5207C"/>
<path d="M11.6934 10.2932C11.1467 10.2932 10.6934 9.8399 10.6934 9.29323V2.81323C10.6934 2.26657 11.1467 1.81323 11.6934 1.81323C12.24 1.81323 12.6934 2.26657 12.6934 2.81323V9.29323C12.6934 9.8399 12.24 10.2932 11.6934 10.2932Z" fill="#F5207C"/>
<path d="M20.9734 9.69323C20.4267 9.69323 19.9734 9.2399 19.9734 8.69323V2.81323C19.9734 2.26657 20.4267 1.81323 20.9734 1.81323C21.5201 1.81323 21.9734 2.26657 21.9734 2.81323V8.69323C21.9734 9.25323 21.5334 9.69323 20.9734 9.69323Z" fill="#F5207C"/>
<path d="M15.12 24.1602C14.64 24.1602 14.1867 24.0402 13.7734 23.8135C12.8667 23.2802 12.3334 22.2135 12.3334 20.8668V17.6668C12.3334 16.3202 12.8667 15.2402 13.7867 14.7068C14.7067 14.1735 15.9067 14.2535 17.0667 14.9335L19.84 16.5335C21 17.2002 21.68 18.2002 21.68 19.2668C21.68 20.3335 21 21.3335 19.8267 22.0002L17.0534 23.6002C16.4134 23.9735 15.7467 24.1602 15.12 24.1602ZM15.1334 16.3602C15 16.3602 14.88 16.3868 14.7867 16.4402C14.5067 16.6002 14.3334 17.0535 14.3334 17.6668V20.8668C14.3334 21.4668 14.5067 21.9202 14.7867 22.0935C15.0667 22.2535 15.5467 22.1735 16.0667 21.8668L18.84 20.2668C19.36 19.9602 19.68 19.5868 19.68 19.2668C19.68 18.9468 19.3734 18.5735 18.84 18.2668L16.0667 16.6668C15.72 16.4668 15.3867 16.3602 15.1334 16.3602Z" fill="#F5207C"/>
</svg>
